<svg width="135" height="24" viewBox="0 0 135 24" fill="none" xmlns="http://www.w3.org/2000/svg">
<path d="M23.8 6.40554V16.2699C23.8 18.2553 25.0137 19.6935 27.378 19.6935C29.7108 19.6935 30.9402 18.2553 30.9402 16.2699V6.40554H35.3693V16.395C35.3693 20.5846 32.8316 23.5236 27.3938 23.5236C21.9559 23.5236 19.3552 20.5533 19.3552 16.4106V6.40554H23.8ZM90.7253 5.99909C95.7691 5.99909 99.1421 9.73535 99.1421 15.1443V16.1761H86.6429C86.9581 18.2084 88.6289 19.9124 91.4818 19.9124C92.9161 19.9124 94.8549 19.3183 95.9424 18.2865L97.9285 21.1943C96.2577 22.7106 93.6097 23.5079 91.009 23.5079C85.8863 23.5079 82.0246 20.0843 82.0246 14.7379C82.0246 9.90731 85.6499 5.99909 90.7253 5.99909ZM109.041 5.99909C114.084 5.99909 117.457 9.73535 117.457 15.1443V16.1761H104.958C105.274 18.2084 106.944 19.9124 109.797 19.9124C111.232 19.9124 113.17 19.3183 114.258 18.2865L116.244 21.1943C114.573 22.7106 111.925 23.5079 109.324 23.5079C104.202 23.5079 100.34 20.0843 100.34 14.7379C100.34 9.90731 103.965 5.99909 109.041 5.99909ZM125.859 6.37428C131.17 6.37428 135.001 9.53212 135.001 14.7379C135.001 19.928 131.186 23.1171 125.89 23.1171H119.081V6.37428H125.859ZM10.8595 0.0585938C15.2728 0.0585938 17.5426 2.85688 17.5426 5.92093C17.5426 8.78174 15.7299 10.7515 13.539 11.2048C16.0452 11.58 17.9997 13.9719 17.9997 16.8327C17.9997 20.3188 15.6984 23.0858 11.2535 23.0858H0.503906V0.0585938H10.8595ZM50.4377 6.40554V9.54776L42.7144 19.2558H50.5796V23.0858H36.8352V19.8029L44.4167 10.2356H36.8352V6.40554H50.4377ZM65.6322 6.40554V9.54776L57.9089 19.2558H65.7741V23.0858H52.0297V19.8029L59.6112 10.2356H52.0297V6.40554H65.6322ZM83.5378 0.0585938V4.37327H72.3783V9.20383H80.7794V13.5185H72.3783V23.0858H67.4291V0.0585938H83.5378ZM126.032 9.98548H123.289V19.5059H126.032C128.979 19.5059 130.698 17.2235 130.698 14.7379C130.698 12.1428 129.121 9.98548 126.032 9.98548ZM9.99259 13.5185H5.45315V18.7712H10.0084C11.8367 18.7712 12.9558 17.8019 12.9558 16.1448C12.9558 14.691 11.9156 13.5185 9.99259 13.5185ZM90.7253 9.59465C87.9827 9.59465 86.7847 11.4862 86.6114 13.1433H94.9021C94.7603 11.5488 93.6412 9.59465 90.7253 9.59465ZM109.041 9.59465C106.298 9.59465 105.1 11.4862 104.927 13.1433H113.218C113.076 11.5488 111.957 9.59465 109.041 9.59465ZM9.7877 4.37327H5.45315V9.20383H9.7877C11.4585 9.20383 12.4987 8.28149 12.4987 6.79637C12.4987 5.37377 11.4585 4.37327 9.7877 4.37327Z" fill="black" fill-opacity="0.5"/>
</svg>
