<svg width="158" height="33" viewBox="0 0 158 33" fill="none" xmlns="http://www.w3.org/2000/svg">
<path d="M0.229557 22.0496L2.21078 21.7427V3.97411L0 3.69514L0.114778 1.77051H13.9533L13.6088 7.15418L10.8527 7.07043L10.6804 3.69514H6.40257V11.7008H8.26859L8.69937 9.85988L10.6229 9.91571V15.4388H8.69937L8.24005 13.5418H6.37382V22.0216H10.6804L11.0824 18.3397L13.9821 18.4234L14.2116 24.03H0.143731L0.229557 22.0496ZM15.5038 24.0579L15.59 22.4123L17.1402 22.1054V10.892L15.3315 10.7245V9.0509L19.8678 8.40942L20.2124 9.35778V9.99926C21.3033 8.8836 22.624 8.214 24.3179 8.214C26.7872 8.214 28.6245 9.66466 28.6245 12.5377V22.0775L30.2612 22.3844L30.1749 24.03H24.7772V13.3745C24.7772 11.8401 24.2031 10.9755 22.7675 10.9755C22.2794 10.9755 21.9349 11.0593 21.5618 11.1987C21.3322 11.3941 21.1023 11.673 20.9015 11.9241V22.1333L22.5379 22.4402L22.4231 24.0859H15.5038V24.0579ZM102.239 24.0579L102.296 22.4123L103.847 22.1054V10.892L102.038 10.7245V9.0509L106.574 8.40942L106.919 9.35778V9.99926C108.01 8.8836 109.33 8.214 111.024 8.214C113.493 8.214 115.331 9.66466 115.331 12.5377V22.0775L116.967 22.3844L116.881 24.03H111.512V13.3745C111.512 11.8401 110.938 10.9755 109.503 10.9755C109.014 10.9755 108.67 11.0593 108.297 11.1987C108.067 11.3941 107.837 11.673 107.636 11.9241V22.1333L109.273 22.4402L109.158 24.0859H102.239V24.0579ZM38.8168 23.7511C38.1852 24.0021 37.0656 24.2813 35.6014 24.2813C33.6776 24.2813 31.8974 23.4444 31.8974 20.7108V10.8918L30.0601 10.613L30.1462 8.66047L32.2134 8.57672L33.1033 5.59206L35.7449 5.48039V8.68818H38.5872L38.3862 10.6409L35.7734 10.9199V20.7385C35.7734 21.5475 36.233 22.0775 37.0943 22.0775H38.6445L38.8168 23.7511ZM146.281 24.0579L146.338 22.4402L147.803 22.1054V10.892L146.08 10.7245V9.0509L150.789 8.40942L151.104 9.49716V9.85988C152.339 8.96715 154.004 8.3815 156.014 8.3815L156.703 8.96715L156.215 13.207L153.631 13.1235L153.372 10.8641C152.77 10.9476 152.195 11.1151 151.707 11.4497V22.1333L153.344 22.4681L153.229 24.0859H146.281V24.0579ZM78.6672 24.0579L78.7535 22.4402L80.2177 22.1054V10.892L78.495 10.7245V9.0509L83.2036 8.40942L83.5194 9.49716V9.85988C84.754 8.96715 86.4192 8.3815 88.429 8.3815L89.1181 8.96715L88.5725 13.207L85.9884 13.1235L85.7299 10.8641C85.1273 10.9476 84.553 11.1151 84.0649 11.4497V22.1333L85.7014 22.4681L85.5866 24.0859H78.6672V24.0579ZM39.9652 24.0579L40.0514 22.4402L41.5157 22.1054V10.892L39.7929 10.7245V9.0509L44.5015 8.40942L44.8173 9.49716V9.85988C46.052 8.96715 47.7172 8.3815 49.6982 8.3815L50.3873 8.96715L49.8992 13.207L47.3152 13.1235L47.0567 10.8641C46.4538 10.9476 45.8797 11.1151 45.3916 11.4497V22.1333L47.0281 22.4681L46.9133 24.0859H39.9652V24.0579ZM54.8374 17.2238C54.8374 19.9018 56.0431 21.966 58.4263 21.966C59.661 21.966 60.6371 21.715 61.7855 21.1847L62.4458 22.6633C61.2687 23.5838 59.546 24.2811 57.3927 24.2811C53.2009 24.2811 50.7893 20.7664 50.7893 16.2475C50.7893 12.3983 52.5406 8.18609 57.3352 8.18609C61.5272 8.18609 63.1062 11.9518 63.1062 16.1361L62.7042 17.1403L54.8374 17.2238ZM54.7801 15.4388L59.6035 15.2154C59.5172 13.3466 59.1154 10.3899 57.2204 10.3899C56.7611 10.3899 56.4453 10.4734 55.871 10.7524C55.0959 12.0358 54.7801 14.3508 54.7801 15.4388ZM121.561 17.2238C121.561 19.9018 122.767 21.966 125.15 21.966C126.385 21.966 127.361 21.715 128.509 21.1847L129.169 22.6633C127.992 23.5838 126.27 24.2811 124.116 24.2811C119.924 24.2811 117.513 20.7664 117.513 16.2475C117.513 12.3983 119.264 8.18609 124.059 8.18609C128.251 8.18609 129.83 11.9518 129.83 16.1361L129.428 17.1403L121.561 17.2238ZM121.504 15.4388L126.327 15.2154C126.241 13.3466 125.839 10.3899 123.944 10.3899C123.485 10.3899 123.169 10.4734 122.595 10.7524C121.82 12.0358 121.504 14.3508 121.504 15.4388ZM93.5394 17.2238C93.5394 19.9018 94.7451 21.966 97.1284 21.966C98.363 21.966 99.3391 21.715 100.487 21.1847L101.148 22.6633C99.9707 23.5838 98.248 24.2811 96.0947 24.2811C91.9027 24.2811 89.4914 20.7664 89.4914 16.2475C89.4914 12.3983 91.2426 8.18609 96.0372 8.18609C100.229 8.18609 101.808 11.9518 101.808 16.1361L101.406 17.1403L93.5394 17.2238ZM93.4819 15.4388L98.3055 15.2154C98.2193 13.3466 97.8174 10.3899 95.9225 10.3899C95.4631 10.3899 95.1471 10.4734 94.573 10.7524C93.7979 12.0358 93.4534 14.3508 93.4819 15.4388ZM140.682 24.0579L140.28 22.7192C139.218 23.6952 138.184 24.2811 136.577 24.2811C134.107 24.2811 131.897 23.0817 131.897 19.7622V10.5016L130.088 10.3341V8.85568L135.314 8.26984L135.715 9.60883V19.3157C135.715 21.0173 136.433 21.91 137.84 21.91C138.242 21.91 138.759 21.8541 139.218 21.6868C139.488 21.424 139.729 21.1341 139.936 20.822V10.5014L138.07 10.3341V8.85568L143.352 8.26984L143.754 9.60883V22.1054L145.391 22.4123L145.19 24.0579H140.682ZM70.9442 22.0496C70.1116 22.0496 69.451 21.9102 68.9344 21.6312V11.7843C69.164 11.4495 69.4225 11.1428 69.681 10.8639C70.1691 10.6964 70.5997 10.6407 71.1163 10.6407C73.2698 10.6407 73.6428 12.7606 73.6428 16.5542C73.6428 20.2085 73.0687 21.2127 72.9252 21.631C72.3222 21.91 71.6908 22.0496 70.9442 22.0496ZM77.3753 15.885C77.3753 11.1709 75.9399 8.214 72.3509 8.214C69.9679 8.214 68.8482 9.55299 68.3889 10.1109V9.58071L67.9869 8.24192L63.307 8.8836V10.5014L65.1159 10.7245V29.7485L63.5655 30.0552L63.4793 31.6452H70.3986L70.5134 30.0552L68.877 29.7485V23.7233C69.5373 24.0859 70.4561 24.309 71.4608 24.309C77.3178 24.309 77.3753 18.5349 77.3753 15.885Z" fill="#F1F6FA" fill-opacity="0.5"/>
</svg>
