<svg width="27" height="28" viewBox="0 0 27 28" fill="none" xmlns="http://www.w3.org/2000/svg">
<path d="M20.2939 3.44947H18.7028C18.4819 3.45038 18.263 3.40725 18.059 3.3226C17.855 3.23795 17.6699 3.11348 17.5146 2.95647L16.1561 1.59932C15.4514 0.895395 14.496 0.5 13.5 0.5C12.504 0.5 11.5486 0.895395 10.8439 1.59932L9.48542 2.95647C9.33007 3.11348 9.14498 3.23795 8.94097 3.3226C8.73696 3.40725 8.51812 3.45038 8.29725 3.44947H6.70609C5.71001 3.45057 4.75504 3.84676 4.0507 4.55111C3.34637 5.25545 2.95019 6.21044 2.94909 7.20654V8.79772C2.94964 9.01843 2.90649 9.23705 2.82211 9.44099C2.73773 9.64492 2.6138 9.83013 2.45748 9.98592L1.09759 11.3444C0.394688 12.0497 0 13.0048 0 14.0006C0 14.9963 0.394688 15.9514 1.09759 16.6567L2.45748 18.0152C2.6138 18.171 2.73773 18.3562 2.82211 18.5602C2.90649 18.7641 2.94964 18.9827 2.94909 19.2034V20.7946C2.95019 21.7907 3.34637 22.7457 4.0507 23.45C4.75504 24.1544 5.71001 24.5506 6.70609 24.5517H8.29725C8.51812 24.5508 8.73696 24.5939 8.94097 24.6785C9.14498 24.7632 9.33007 24.8877 9.48542 25.0447L10.8439 26.4018C11.549 27.1051 12.5042 27.5 13.5 27.5C14.4958 27.5 15.451 27.1051 16.1561 26.4018L17.5146 25.0447C17.6699 24.8877 17.855 24.7632 18.059 24.6785C18.263 24.5939 18.4819 24.5508 18.7028 24.5517H20.2939C21.29 24.5506 22.245 24.1544 22.9493 23.45C23.6536 22.7457 24.0498 21.7907 24.0509 20.7946V19.2034C24.0504 18.9827 24.0935 18.7641 24.1779 18.5602C24.2623 18.3562 24.3862 18.171 24.5425 18.0152L25.9024 16.6567C26.6053 15.9514 27 14.9963 27 14.0006C27 13.0048 26.6053 12.0497 25.9024 11.3444L24.5425 9.98453C24.3862 9.82874 24.2623 9.64354 24.1779 9.4396C24.0935 9.23567 24.0504 9.01704 24.0509 8.79634V7.20654C24.0498 6.21044 23.6536 5.25545 22.9493 4.55111C22.245 3.84676 21.29 3.45057 20.2939 3.44947Z" fill="#F02E68"/>
<path d="M16.9197 10.497L12.1144 15.301L10.0787 13.2667C9.8818 13.0832 9.62139 12.9834 9.35232 12.9881C9.08325 12.9929 8.82653 13.1019 8.63623 13.2922C8.44594 13.4824 8.33694 13.7392 8.33219 14.0083C8.32745 14.2773 8.42732 14.5377 8.61078 14.7346L11.3804 17.5043C11.4767 17.601 11.591 17.6776 11.717 17.73C11.8429 17.7823 11.978 17.8092 12.1144 17.8092C12.2508 17.8092 12.3858 17.7823 12.5117 17.73C12.6377 17.6776 12.7521 17.601 12.8483 17.5043L18.3876 11.965C18.571 11.7681 18.6709 11.5076 18.6662 11.2386C18.6614 10.9695 18.5524 10.7128 18.3621 10.5225C18.1718 10.3322 17.9151 10.2232 17.646 10.2184C17.377 10.2137 17.1166 10.3136 16.9197 10.497Z" fill="white"/>
</svg>
