<svg width="505" height="530" viewBox="0 0 505 530" fill="none" xmlns="http://www.w3.org/2000/svg">
<circle cx="390.5" cy="207.5" r="114.5" fill="#120F2E"/>
<g clip-path="url(#clip0_1040_38584)">
<path d="M393.826 200.123C393.826 201.264 392.9 202.183 391.752 202.183C390.603 202.183 389.678 201.264 389.678 200.123C389.678 198.982 390.571 198.063 391.752 198.063C392.932 198.094 393.826 199.013 393.826 200.123ZM385.275 204.275C385.275 204.466 385.275 204.783 385.275 204.783C385.275 204.783 384.286 203.515 382.18 203.515C378.702 203.515 375.99 206.146 375.99 209.791C375.99 213.405 378.67 216.067 382.18 216.067C384.317 216.067 385.275 214.768 385.275 214.768V215.306C385.275 215.56 385.466 215.75 385.721 215.75H388.306V203.832C388.306 203.832 385.945 203.832 385.721 203.832C385.466 203.832 385.275 204.054 385.275 204.275ZM385.275 211.915C384.796 212.612 383.839 213.214 382.69 213.214C380.648 213.214 379.085 211.946 379.085 209.791C379.085 207.635 380.648 206.367 382.69 206.367C383.807 206.367 384.828 207.001 385.275 207.667V211.915ZM390.22 203.832H393.283V215.75H390.22V203.832ZM435.975 203.515C433.869 203.515 432.88 204.783 432.88 204.783V198.094H429.817V215.75C429.817 215.75 432.178 215.75 432.401 215.75C432.656 215.75 432.848 215.528 432.848 215.306V214.768C432.848 214.768 433.837 216.067 435.943 216.067C439.421 216.067 442.133 213.405 442.133 209.791C442.133 206.177 439.421 203.515 435.975 203.515ZM435.464 213.183C434.284 213.183 433.358 212.58 432.88 211.883V207.635C433.358 207.001 434.379 206.336 435.464 206.336C437.506 206.336 439.07 207.604 439.07 209.759C439.07 211.915 437.506 213.183 435.464 213.183ZM428.221 208.681V215.782H425.158V209.03C425.158 207.065 424.52 206.272 422.797 206.272C421.872 206.272 420.915 206.748 420.308 207.445V215.75H417.245V203.832H419.67C419.926 203.832 420.117 204.054 420.117 204.275V204.783C421.01 203.863 422.191 203.515 423.371 203.515C424.712 203.515 425.828 203.895 426.722 204.656C427.807 205.543 428.221 206.684 428.221 208.681ZM409.811 203.515C407.705 203.515 406.716 204.783 406.716 204.783V198.094H403.653V215.75C403.653 215.75 406.014 215.75 406.237 215.75C406.493 215.75 406.684 215.528 406.684 215.306V214.768C406.684 214.768 407.673 216.067 409.779 216.067C413.257 216.067 415.969 213.405 415.969 209.791C416.001 206.177 413.289 203.515 409.811 203.515ZM409.301 213.183C408.12 213.183 407.195 212.58 406.716 211.883V207.635C407.195 207.001 408.216 206.336 409.301 206.336C411.343 206.336 412.906 207.604 412.906 209.759C412.906 211.915 411.343 213.183 409.301 213.183ZM401.005 203.515C401.93 203.515 402.409 203.673 402.409 203.673V206.494C402.409 206.494 399.856 205.638 398.261 207.445V215.782H395.198V203.832C395.198 203.832 397.559 203.832 397.782 203.832C398.037 203.832 398.229 204.054 398.229 204.275V204.783C398.803 204.117 400.048 203.515 401.005 203.515ZM369.194 214.672C369.034 214.292 368.874 213.88 368.715 213.531C368.46 212.961 368.204 212.422 367.981 211.915L367.949 211.883C365.748 207.128 363.387 202.31 360.898 197.555L360.802 197.365C360.547 196.89 360.292 196.383 360.036 195.875C359.717 195.305 359.398 194.702 358.888 194.132C357.867 192.864 356.399 192.167 354.835 192.167C353.24 192.167 351.804 192.864 350.751 194.069C350.273 194.639 349.922 195.241 349.603 195.812C349.347 196.319 349.092 196.826 348.837 197.302L348.741 197.492C346.284 202.247 343.891 207.065 341.69 211.82L341.658 211.883C341.435 212.39 341.179 212.929 340.924 213.5C340.765 213.848 340.605 214.229 340.445 214.641C340.031 215.814 339.903 216.923 340.063 218.064C340.414 220.442 342.009 222.439 344.21 223.326C345.04 223.675 345.902 223.833 346.795 223.833C347.05 223.833 347.369 223.802 347.625 223.77C348.677 223.643 349.762 223.294 350.815 222.692C352.123 221.963 353.368 220.917 354.772 219.396C356.176 220.917 357.452 221.963 358.728 222.692C359.781 223.294 360.866 223.643 361.919 223.77C362.174 223.802 362.493 223.833 362.748 223.833C363.642 223.833 364.535 223.675 365.333 223.326C367.566 222.439 369.13 220.41 369.481 218.064C369.736 216.955 369.608 215.845 369.194 214.672ZM354.804 216.321C353.081 214.165 351.964 212.137 351.581 210.425C351.421 209.696 351.39 209.062 351.485 208.491C351.549 207.984 351.74 207.54 351.996 207.16C352.602 206.304 353.623 205.765 354.804 205.765C355.984 205.765 357.037 206.272 357.611 207.16C357.867 207.54 358.058 207.984 358.122 208.491C358.218 209.062 358.186 209.728 358.026 210.425C357.643 212.105 356.527 214.134 354.804 216.321ZM367.534 217.811C367.311 219.459 366.194 220.885 364.631 221.519C363.865 221.836 363.036 221.931 362.206 221.836C361.408 221.741 360.611 221.488 359.781 221.012C358.632 220.378 357.484 219.396 356.144 217.937C358.25 215.37 359.526 213.024 360.004 210.932C360.228 209.949 360.26 209.062 360.164 208.238C360.036 207.445 359.749 206.716 359.302 206.082C358.313 204.656 356.654 203.832 354.804 203.832C352.953 203.832 351.294 204.687 350.305 206.082C349.858 206.716 349.571 207.445 349.443 208.238C349.316 209.062 349.347 209.981 349.603 210.932C350.081 213.024 351.39 215.402 353.463 217.969C352.155 219.427 350.975 220.41 349.826 221.044C348.996 221.519 348.199 221.773 347.401 221.868C346.54 221.963 345.71 221.836 344.976 221.551C343.413 220.917 342.296 219.491 342.073 217.842C341.977 217.05 342.041 216.257 342.36 215.37C342.456 215.053 342.615 214.736 342.775 214.355C342.998 213.848 343.253 213.309 343.509 212.771L343.54 212.707C345.742 207.984 348.103 203.166 350.56 198.475L350.656 198.284C350.911 197.809 351.166 197.302 351.421 196.826C351.677 196.319 351.964 195.844 352.315 195.432C352.985 194.671 353.878 194.259 354.867 194.259C355.856 194.259 356.75 194.671 357.42 195.432C357.771 195.844 358.058 196.319 358.313 196.826C358.569 197.302 358.824 197.809 359.079 198.284L359.175 198.475C361.6 203.198 363.961 208.016 366.162 212.739V212.771C366.418 213.278 366.641 213.848 366.896 214.355C367.056 214.736 367.215 215.053 367.311 215.37C367.566 216.194 367.662 216.986 367.534 217.811Z" fill="#F1F6FA"/>
</g>
<circle cx="257.5" cy="114.5" r="114.5" fill="#171332"/>
<path d="M215.774 100.75H204V128.458L215.774 100.75Z" fill="#F1F6FA"/>
<path d="M224.059 100.75H235.817V128.458L224.059 100.75Z" fill="#F1F6FA"/>
<path d="M219.916 110.962L227.41 128.458H222.494L220.254 122.888H214.77L219.916 110.962Z" fill="#F1F6FA"/>
<path d="M255.026 118.371L256.414 122.288C256.46 122.386 256.529 122.431 256.652 122.431H259.321C259.467 122.431 259.49 122.364 259.467 122.22L253.952 107.147C253.929 107.026 253.906 107.004 253.783 107.004H250.47C250.378 107.004 250.324 107.071 250.324 107.17C250.278 107.962 250.209 108.204 250.109 108.438L245.193 122.197C245.17 122.364 245.223 122.431 245.361 122.431H247.747C247.893 122.431 247.962 122.386 248.015 122.243L249.327 118.371H255.026ZM250.086 115.812C250.807 113.668 251.758 110.921 252.142 109.351H252.165C252.641 110.996 253.76 114.257 254.267 115.812H250.086Z" fill="#F1F6FA"/>
<path d="M266.559 122.665C267.993 122.665 269.519 122.409 271.069 121.752C271.192 121.707 271.215 121.654 271.215 121.541C271.169 121.118 271.115 120.507 271.115 120.039V105.849C271.115 105.758 271.115 105.713 271 105.713H268.4C268.3 105.713 268.254 105.758 268.254 105.879V110.687C267.847 110.642 267.564 110.619 267.226 110.619C263.03 110.619 260.453 113.344 260.453 116.748C260.453 120.695 263.099 122.665 266.559 122.665ZM268.254 120.039C267.824 120.175 267.349 120.227 266.866 120.227C264.963 120.227 263.406 119.171 263.406 116.605C263.406 114.333 265.009 112.989 267.134 112.989C267.564 112.989 267.939 113.034 268.254 113.155V120.039Z" fill="#F1F6FA"/>
<path d="M279.51 110.619C275.928 110.619 273.711 113.321 273.711 116.657C273.711 119.639 275.475 122.665 279.456 122.665C282.823 122.665 285.186 120.227 285.186 116.582C285.186 113.366 283.184 110.619 279.51 110.619ZM279.364 112.989C281.389 112.989 282.248 114.702 282.248 116.657C282.248 119.073 280.982 120.273 279.51 120.273C277.692 120.273 276.618 118.771 276.618 116.605C276.618 114.378 277.761 112.989 279.364 112.989Z" fill="#F1F6FA"/>
<path d="M287.872 105.713C287.772 105.713 287.703 105.758 287.703 105.879V121.941C287.703 122.009 287.772 122.13 287.872 122.152C289.015 122.499 290.211 122.665 291.446 122.665C294.982 122.665 298.419 120.507 298.419 116.159C298.419 113.012 296.225 110.619 292.789 110.619C291.999 110.619 291.262 110.74 290.618 110.951L290.587 105.902C290.587 105.736 290.541 105.713 290.372 105.713H287.872ZM295.481 116.446C295.481 119.05 293.671 120.273 291.715 120.273C291.308 120.273 290.948 120.25 290.618 120.152V113.299C290.994 113.155 291.446 113.034 292.282 113.034C294.169 113.034 295.481 114.212 295.481 116.446Z" fill="#F1F6FA"/>
<path d="M308.122 117.291C309.288 117.291 310.247 117.269 310.576 117.193C310.699 117.171 310.745 117.125 310.768 117.027C310.837 116.771 310.868 116.235 310.868 115.578C310.868 113.344 309.503 110.619 305.974 110.619C302.369 110.619 300.367 113.51 300.367 116.771C300.367 119.661 301.917 122.665 306.258 122.665C307.884 122.665 308.935 122.409 309.84 121.986C309.932 121.941 309.978 121.865 309.978 121.73V119.775C309.978 119.661 309.909 119.639 309.84 119.684C308.935 120.061 307.953 120.25 306.879 120.25C304.448 120.25 303.343 118.929 303.274 117.291H308.122ZM303.274 115.269C303.466 114.121 304.202 112.876 305.851 112.876C307.669 112.876 308.145 114.378 308.145 115.057C308.145 115.08 308.145 115.178 308.145 115.246C308.045 115.269 307.738 115.269 306.833 115.269H303.274Z" fill="#F1F6FA"/>
<circle cx="114.5" cy="207.5" r="114.5" fill="#120F2E"/>
<g clip-path="url(#clip1_1040_38584)">
<path d="M83.1432 212.855C83.4476 213.662 83.8689 214.353 84.4073 214.926C84.9457 215.5 85.5836 215.939 86.3209 216.243C87.0583 216.547 87.86 216.699 88.7261 216.699C89.5689 216.699 90.3589 216.541 91.0963 216.225C91.8337 215.909 92.4773 215.465 93.0274 214.891C93.5775 214.318 94.0047 213.633 94.309 212.837C94.6134 212.041 94.7655 211.152 94.7655 210.169V195H98.4523V219.579H94.8006V217.296C93.9813 218.162 93.0157 218.83 91.9038 219.298C90.7919 219.766 89.5923 220 88.3048 220C86.9939 220 85.7708 219.772 84.6355 219.315C83.5002 218.859 82.517 218.209 81.6861 217.367C80.8552 216.524 80.1997 215.512 79.7198 214.329C79.2399 213.147 79 211.831 79 210.379V195H82.6868V210.169C82.6868 211.152 82.8389 212.047 83.1432 212.855Z" fill="#F1F6FA"/>
<path d="M104.807 195V203.954C105.627 203.134 106.575 202.485 107.651 202.005C108.728 201.525 109.899 201.285 111.163 201.285C112.474 201.285 113.702 201.531 114.849 202.022C115.996 202.514 116.991 203.181 117.834 204.024C118.677 204.867 119.344 205.861 119.835 207.008C120.327 208.155 120.573 209.373 120.573 210.66C120.573 211.948 120.327 213.159 119.835 214.294C119.344 215.43 118.677 216.419 117.834 217.261C116.991 218.104 115.996 218.771 114.849 219.263C113.702 219.754 112.473 220 111.163 220C109.899 220 108.722 219.76 107.634 219.28C106.545 218.8 105.591 218.151 104.772 217.331V219.579H101.261V195H104.807ZM105.211 213.083C105.527 213.832 105.966 214.487 106.528 215.049C107.09 215.611 107.745 216.056 108.494 216.384C109.243 216.711 110.051 216.875 110.917 216.875C111.76 216.875 112.555 216.711 113.305 216.384C114.054 216.056 114.703 215.611 115.253 215.049C115.803 214.487 116.242 213.832 116.57 213.083C116.898 212.334 117.062 211.526 117.062 210.66C117.062 209.794 116.898 208.981 116.57 208.22C116.242 207.459 115.803 206.798 115.253 206.236C114.703 205.674 114.054 205.235 113.305 204.919C112.555 204.603 111.76 204.445 110.917 204.445C110.074 204.445 109.278 204.603 108.529 204.919C107.78 205.235 107.125 205.674 106.563 206.236C106.001 206.798 105.556 207.459 105.229 208.22C104.901 208.981 104.737 209.794 104.737 210.66C104.737 211.526 104.895 212.334 105.211 213.083Z" fill="#F1F6FA"/>
<path d="M122.574 207.044C123.042 205.92 123.686 204.931 124.505 204.077C125.324 203.222 126.296 202.549 127.419 202.058C128.543 201.566 129.76 201.32 131.071 201.32C132.358 201.32 133.552 201.554 134.652 202.023C135.753 202.491 136.701 203.14 137.496 203.971C138.292 204.802 138.913 205.785 139.357 206.921C139.802 208.056 140.025 209.291 140.025 210.625V211.784H125.453C125.57 212.51 125.804 213.182 126.155 213.803C126.506 214.423 126.945 214.961 127.472 215.418C127.999 215.874 128.595 216.231 129.263 216.489C129.93 216.746 130.638 216.875 131.387 216.875C133.517 216.875 135.238 215.997 136.549 214.242L139.112 216.138C138.222 217.331 137.122 218.268 135.811 218.947C134.5 219.625 133.026 219.965 131.387 219.965C130.053 219.965 128.806 219.731 127.648 219.263C126.489 218.795 125.482 218.139 124.628 217.296C123.774 216.454 123.101 215.465 122.609 214.329C122.117 213.194 121.872 211.959 121.872 210.625C121.871 209.361 122.106 208.167 122.574 207.044ZM127.507 205.657C126.512 206.488 125.851 207.594 125.523 208.975H136.443C136.139 207.594 135.489 206.488 134.494 205.657C133.5 204.826 132.335 204.41 131.001 204.41C129.666 204.41 128.502 204.826 127.507 205.657Z" fill="#F1F6FA"/>
<path d="M146.661 206.06C145.912 206.88 145.537 207.992 145.537 209.396V219.579H141.991V201.671H145.502V203.883C145.947 203.158 146.526 202.584 147.24 202.163C147.954 201.742 148.802 201.531 149.786 201.531H151.015V204.831H149.54C148.369 204.831 147.41 205.241 146.661 206.06Z" fill="#F1F6FA"/>
</g>
<circle cx="114.5" cy="353.5" r="114.5" fill="#171332"/>
<g clip-path="url(#clip2_1040_38584)">
<path d="M74.4609 336.566C64.8511 336.566 57.0605 344.401 57.0605 354.066C57.0605 363.731 64.8511 371.566 74.4609 371.566C84.0716 371.566 91.8614 363.731 91.8614 354.066C91.8614 344.402 84.0716 336.567 74.4607 336.567L74.4609 336.566ZM82.4405 361.806C82.1289 362.32 81.4598 362.483 80.9487 362.168C76.8632 359.658 71.7202 359.089 65.6634 360.481C65.0797 360.615 64.4979 360.247 64.3649 359.66C64.2313 359.073 64.5956 358.488 65.1807 358.354C71.8089 356.831 77.4945 357.487 82.0811 360.306C82.5922 360.621 82.7543 361.292 82.4405 361.806ZM84.5703 357.041C84.1776 357.683 83.3423 357.886 82.7044 357.491C78.0272 354.599 70.8976 353.762 65.3654 355.451C64.6479 355.669 63.8901 355.262 63.6724 354.542C63.4563 353.82 63.8608 353.06 64.5771 352.84C70.8964 350.912 78.7524 351.846 84.1236 355.165C84.7615 355.56 84.963 356.4 84.5703 357.041V357.041ZM84.7532 352.079C79.1451 348.729 69.8926 348.421 64.5382 350.055C63.6784 350.318 62.7692 349.829 62.5086 348.965C62.248 348.1 62.733 347.186 63.5934 346.923C69.7398 345.046 79.9575 345.409 86.4142 349.264C87.1892 349.725 87.4427 350.73 86.9835 351.507C86.5264 352.284 85.5249 352.541 84.754 352.079H84.7532ZM104.401 352.721C101.397 352 100.863 351.495 100.863 350.432C100.863 349.428 101.802 348.753 103.2 348.753C104.555 348.753 105.897 349.266 107.306 350.322C107.347 350.354 107.401 350.367 107.453 350.358C107.507 350.35 107.553 350.321 107.584 350.277L109.051 348.198C109.111 348.112 109.095 347.994 109.014 347.929C107.337 346.576 105.45 345.918 103.244 345.918C100 345.918 97.7333 347.876 97.7333 350.677C97.7333 353.682 99.6885 354.745 103.067 355.566C105.941 356.232 106.427 356.79 106.427 357.787C106.427 358.893 105.446 359.58 103.867 359.58C102.113 359.58 100.682 358.985 99.0818 357.593C99.0423 357.558 98.9883 357.543 98.9385 357.545C98.8844 357.549 98.8366 357.574 98.8034 357.614L97.1578 359.583C97.0892 359.666 97.0975 359.787 97.1765 359.858C99.0382 361.53 101.328 362.412 103.801 362.412C107.295 362.412 109.554 360.492 109.554 357.518C109.56 355.009 108.066 353.619 104.407 352.724L104.401 352.721ZM117.462 349.741C115.948 349.741 114.705 350.341 113.679 351.571V350.187C113.679 350.077 113.591 349.988 113.483 349.988H110.792C110.684 349.988 110.597 350.077 110.597 350.187V365.568C110.597 365.676 110.684 365.766 110.792 365.766H113.483C113.591 365.766 113.679 365.676 113.679 365.568V360.713C114.705 361.869 115.948 362.435 117.462 362.435C120.278 362.435 123.128 360.255 123.128 356.089C123.133 351.921 120.282 349.741 117.464 349.741L117.462 349.741ZM119.999 356.089C119.999 358.21 118.701 359.691 116.839 359.691C115 359.691 113.612 358.143 113.612 356.089C113.612 354.034 115 352.486 116.839 352.486C118.669 352.486 119.999 354.001 119.999 356.088V356.089ZM130.432 349.741C126.806 349.741 123.966 352.549 123.966 356.134C123.966 359.681 126.788 362.458 130.388 362.458C134.027 362.458 136.875 359.66 136.875 356.089C136.875 352.53 134.045 349.741 130.432 349.741V349.741ZM130.432 359.712C128.504 359.712 127.049 358.153 127.049 356.088C127.049 354.013 128.454 352.507 130.388 352.507C132.329 352.507 133.792 354.065 133.792 356.133C133.792 358.208 132.379 359.712 130.432 359.712ZM144.617 349.988H141.656V346.945C141.656 346.835 141.569 346.746 141.461 346.746H138.77C138.662 346.746 138.573 346.835 138.573 346.945V349.988H137.281C137.172 349.988 137.085 350.077 137.085 350.187V352.512C137.085 352.621 137.172 352.71 137.281 352.71H138.573V358.728C138.573 361.158 139.776 362.391 142.151 362.391C143.115 362.391 143.915 362.191 144.669 361.76C144.732 361.727 144.769 361.66 144.769 361.589V359.374C144.769 359.307 144.734 359.242 144.676 359.206C144.617 359.169 144.545 359.167 144.484 359.198C143.967 359.459 143.466 359.58 142.905 359.58C142.043 359.58 141.656 359.186 141.656 358.304V352.711H144.617C144.725 352.711 144.813 352.622 144.813 352.513V350.188C144.817 350.079 144.73 349.99 144.619 349.99L144.617 349.988ZM154.932 350V349.627C154.932 348.527 155.351 348.036 156.291 348.036C156.852 348.036 157.302 348.148 157.807 348.317C157.87 348.337 157.934 348.327 157.984 348.29C158.036 348.253 158.065 348.193 158.065 348.129V345.849C158.065 345.762 158.011 345.685 157.926 345.659C157.394 345.5 156.712 345.336 155.69 345.336C153.207 345.336 151.892 346.743 151.892 349.404V349.977H150.599C150.491 349.977 150.402 350.066 150.402 350.175V352.512C150.402 352.621 150.491 352.71 150.599 352.71H151.892V361.99C151.892 362.101 151.981 362.189 152.089 362.189H154.778C154.888 362.189 154.975 362.101 154.975 361.99V352.711H157.487L161.336 361.99C160.899 362.964 160.469 363.158 159.883 363.158C159.409 363.158 158.909 363.016 158.4 362.734C158.352 362.709 158.294 362.705 158.244 362.719C158.192 362.738 158.148 362.776 158.127 362.826L157.215 364.838C157.172 364.934 157.209 365.045 157.3 365.095C158.252 365.614 159.11 365.835 160.172 365.835C162.158 365.835 163.257 364.903 164.224 362.4L168.89 350.271C168.915 350.21 168.907 350.141 168.87 350.087C168.834 350.033 168.774 350.001 168.71 350.001H165.909C165.824 350.001 165.749 350.055 165.722 350.134L162.852 358.375L159.711 350.128C159.682 350.052 159.609 350.001 159.528 350.001H154.932V350ZM148.952 349.988H146.261C146.153 349.988 146.063 350.077 146.063 350.187V361.99C146.063 362.101 146.153 362.189 146.261 362.189H148.952C149.06 362.189 149.149 362.101 149.149 361.99V350.188C149.149 350.078 149.062 349.989 148.952 349.989V349.988ZM147.622 344.614C146.556 344.614 145.692 345.481 145.692 346.553C145.692 347.626 146.556 348.495 147.622 348.495C148.688 348.495 149.55 347.626 149.55 346.553C149.55 345.482 148.686 344.614 147.622 344.614ZM171.189 353.784C170.125 353.784 169.296 352.924 169.296 351.88C169.296 350.835 170.135 349.965 171.199 349.965C172.263 349.965 173.092 350.825 173.092 351.869C173.092 352.913 172.252 353.784 171.189 353.784ZM171.199 350.155C170.229 350.155 169.495 350.93 169.495 351.88C169.495 352.828 170.224 353.593 171.189 353.593C172.159 353.593 172.892 352.819 172.892 351.869C172.892 350.92 172.163 350.155 171.199 350.155ZM171.619 352.064L172.155 352.818H171.702L171.22 352.127H170.806V352.818H170.428V350.82H171.313C171.777 350.82 172.08 351.057 172.08 351.457C172.082 351.785 171.893 351.985 171.621 352.064H171.619ZM171.299 351.163H170.806V351.795H171.299C171.544 351.795 171.691 351.674 171.691 351.478C171.691 351.273 171.544 351.163 171.299 351.163Z" fill="#F1F6FA"/>
</g>
<circle cx="257.5" cy="415.5" r="114.5" fill="#120F2E"/>
<path d="M249.238 417.65C249.238 422.973 245.073 426.896 239.963 426.896C234.852 426.896 230.688 422.973 230.688 417.65C230.688 412.289 234.852 408.404 239.963 408.404C245.073 408.404 249.238 412.289 249.238 417.65ZM245.177 417.65C245.177 414.324 242.764 412.048 239.963 412.048C237.161 412.048 234.748 414.324 234.748 417.65C234.748 420.943 237.161 423.253 239.963 423.253C242.764 423.253 245.177 420.939 245.177 417.65Z" fill="#F1F6FA"/>
<path d="M269.247 417.65C269.247 422.973 265.083 426.896 259.972 426.896C254.862 426.896 250.697 422.973 250.697 417.65C250.697 412.294 254.862 408.404 259.972 408.404C265.083 408.404 269.247 412.289 269.247 417.65ZM265.187 417.65C265.187 414.324 262.774 412.048 259.972 412.048C257.171 412.048 254.757 414.324 254.757 417.65C254.757 420.943 257.171 423.253 259.972 423.253C262.774 423.253 265.187 420.939 265.187 417.65Z" fill="#F1F6FA"/>
<path d="M288.422 408.963V425.562C288.422 432.39 284.395 435.179 279.635 435.179C275.153 435.179 272.456 432.182 271.439 429.731L274.974 428.259C275.604 429.764 277.146 431.54 279.63 431.54C282.678 431.54 284.566 429.66 284.566 426.121V424.791H284.424C283.516 425.912 281.765 426.892 279.555 426.892C274.933 426.892 270.697 422.865 270.697 417.683C270.697 412.464 274.933 408.404 279.555 408.404C281.761 408.404 283.511 409.384 284.424 410.472H284.566V408.967H288.422V408.963ZM284.854 417.683C284.854 414.428 282.682 412.048 279.918 412.048C277.117 412.048 274.77 414.428 274.77 417.683C274.77 420.906 277.117 423.253 279.918 423.253C282.682 423.253 284.854 420.906 284.854 417.683Z" fill="#F1F6FA"/>
<path d="M294.778 399.234V426.329H290.818V399.234H294.778Z" fill="#F1F6FA"/>
<path d="M310.211 420.693L313.363 422.794C312.346 424.299 309.895 426.892 305.659 426.892C300.407 426.892 296.484 422.832 296.484 417.646C296.484 412.148 300.44 408.4 305.205 408.4C310.003 408.4 312.35 412.219 313.117 414.282L313.538 415.332L301.178 420.451C302.124 422.306 303.596 423.253 305.659 423.253C307.727 423.253 309.161 422.236 310.211 420.693ZM300.511 417.367L308.773 413.936C308.319 412.781 306.952 411.977 305.343 411.977C303.279 411.977 300.407 413.798 300.511 417.367Z" fill="#F1F6FA"/>
<path d="M215.697 415.245V411.322H228.916C229.045 412.006 229.112 412.814 229.112 413.69C229.112 416.633 228.307 420.272 225.714 422.865C223.193 425.491 219.97 426.892 215.702 426.892C207.79 426.892 201.137 420.447 201.137 412.535C201.137 404.623 207.79 398.179 215.702 398.179C220.079 398.179 223.197 399.896 225.539 402.135L222.771 404.903C221.092 403.327 218.816 402.101 215.697 402.101C209.92 402.101 205.401 406.758 205.401 412.535C205.401 418.313 209.92 422.969 215.697 422.969C219.445 422.969 221.579 421.464 222.947 420.097C224.055 418.988 224.785 417.404 225.073 415.241L215.697 415.245Z" fill="#F1F6FA"/>
<circle cx="390.5" cy="353.5" r="114.5" fill="#171332"/>
<path fill-rule="evenodd" clip-rule="evenodd" d="M402.757 366.656C396.972 370.956 388.587 373.25 381.368 373.25C371.245 373.25 362.132 369.475 355.237 363.196C354.696 362.702 355.181 362.029 355.831 362.413C363.271 366.779 372.471 369.405 381.974 369.405C388.383 369.405 395.434 368.068 401.917 365.293C402.896 364.873 403.715 365.94 402.757 366.656Z" fill="#F1F6FA"/>
<path fill-rule="evenodd" clip-rule="evenodd" d="M405.162 363.882C404.426 362.929 400.274 363.432 398.411 363.654C397.843 363.724 397.757 363.226 398.268 362.868C401.574 360.522 407 361.199 407.632 361.985C408.265 362.776 407.468 368.26 404.361 370.877C403.884 371.279 403.429 371.065 403.641 370.532C404.339 368.775 405.903 364.839 405.162 363.882Z" fill="#F1F6FA"/>
<path fill-rule="evenodd" clip-rule="evenodd" d="M398.543 346.303V344.022C398.543 343.677 398.803 343.446 399.115 343.446H409.242C409.567 343.446 409.827 343.682 409.827 344.022V345.976C409.823 346.303 409.55 346.732 409.064 347.409L403.817 354.964C405.767 354.916 407.825 355.208 409.593 356.213C409.992 356.441 410.1 356.773 410.13 357.1V359.534C410.13 359.866 409.766 360.255 409.385 360.054C406.269 358.407 402.131 358.228 398.686 360.072C398.335 360.264 397.967 359.879 397.967 359.547V357.236C397.967 356.864 397.971 356.231 398.339 355.667L404.419 346.876H399.128C398.803 346.876 398.543 346.644 398.543 346.303Z" fill="#F1F6FA"/>
<path fill-rule="evenodd" clip-rule="evenodd" d="M361.601 360.535H358.52C358.225 360.513 357.991 360.29 357.97 360.006V344.062C357.97 343.743 358.234 343.489 358.563 343.489H361.436C361.735 343.503 361.974 343.734 361.995 344.022V346.107H362.052C362.801 344.092 364.21 343.153 366.108 343.153C368.036 343.153 369.241 344.092 370.107 346.107C370.853 344.092 372.547 343.153 374.363 343.153C375.654 343.153 377.067 343.69 377.929 344.896C378.904 346.238 378.705 348.187 378.705 349.895L378.7 359.958C378.7 360.277 378.436 360.535 378.107 360.535H375.03C374.722 360.513 374.475 360.264 374.475 359.958V351.507C374.475 350.835 374.536 349.157 374.389 348.519C374.159 347.448 373.47 347.147 372.577 347.147C371.832 347.147 371.052 347.649 370.736 348.453C370.419 349.257 370.45 350.603 370.45 351.507V359.958C370.45 360.277 370.185 360.535 369.856 360.535H366.779C366.467 360.513 366.225 360.264 366.225 359.958L366.22 351.507C366.22 349.729 366.511 347.112 364.322 347.112C362.108 347.112 362.195 349.664 362.195 351.507V359.958C362.195 360.277 361.93 360.535 361.601 360.535Z" fill="#F1F6FA"/>
<path fill-rule="evenodd" clip-rule="evenodd" d="M418.546 343.153C423.117 343.153 425.592 347.112 425.592 352.145C425.592 357.009 422.857 360.867 418.546 360.867C414.056 360.867 411.612 356.908 411.612 351.975C411.612 347.011 414.087 343.153 418.546 343.153ZM418.572 346.408C416.301 346.408 416.158 349.528 416.158 351.472C416.158 353.421 416.128 357.581 418.546 357.581C420.933 357.581 421.046 354.225 421.046 352.18C421.046 350.835 420.99 349.227 420.587 347.951C420.24 346.841 419.551 346.408 418.572 346.408Z" fill="#F1F6FA"/>
<path fill-rule="evenodd" clip-rule="evenodd" d="M431.52 360.535H428.452C428.144 360.513 427.897 360.264 427.897 359.958L427.893 344.009C427.919 343.717 428.175 343.489 428.487 343.489H431.342C431.611 343.503 431.832 343.686 431.893 343.935V346.373H431.949C432.811 344.193 434.02 343.153 436.148 343.153C437.53 343.153 438.878 343.655 439.745 345.032C440.551 346.308 440.551 348.453 440.551 349.996V360.032C440.516 360.312 440.26 360.535 439.957 360.535H436.867C436.586 360.513 436.352 360.303 436.321 360.032V351.372C436.321 349.629 436.521 347.077 434.393 347.077C433.643 347.077 432.954 347.584 432.612 348.353C432.179 349.327 432.122 350.297 432.122 351.372V359.958C432.118 360.277 431.849 360.535 431.52 360.535Z" fill="#F1F6FA"/>
<path fill-rule="evenodd" clip-rule="evenodd" d="M390.47 352.919C390.47 354.129 390.5 355.138 389.894 356.213C389.404 357.087 388.624 357.625 387.762 357.625C386.579 357.625 385.885 356.716 385.885 355.374C385.885 352.726 388.238 352.246 390.47 352.246V352.919ZM393.577 360.491C393.373 360.675 393.079 360.688 392.849 360.565C391.826 359.709 391.64 359.311 391.081 358.494C389.391 360.233 388.191 360.753 386.002 360.753C383.407 360.753 381.392 359.141 381.392 355.912C381.392 353.391 382.744 351.673 384.676 350.834C386.349 350.092 388.685 349.961 390.47 349.755V349.353C390.47 348.615 390.526 347.741 390.093 347.103C389.72 346.531 389.001 346.295 388.364 346.295C387.19 346.295 386.145 346.902 385.89 348.16C385.838 348.44 385.634 348.715 385.352 348.728L382.367 348.405C382.115 348.348 381.834 348.143 381.907 347.754C382.592 344.101 385.868 343 388.797 343C390.297 343 392.255 343.402 393.438 344.547C394.938 345.958 394.795 347.841 394.795 349.891V354.732C394.795 356.187 395.393 356.825 395.956 357.612C396.151 357.891 396.194 358.228 395.943 358.437C395.315 358.966 394.197 359.949 393.581 360.5L393.577 360.491Z" fill="#F1F6FA"/>
<path fill-rule="evenodd" clip-rule="evenodd" d="M350.078 352.919C350.078 354.129 350.109 355.138 349.502 356.213C349.012 357.087 348.237 357.625 347.37 357.625C346.187 357.625 345.498 356.716 345.498 355.374C345.498 352.726 347.851 352.246 350.078 352.246V352.919ZM353.185 360.491C352.982 360.675 352.687 360.688 352.457 360.565C351.435 359.709 351.253 359.311 350.689 358.494C348.999 360.233 347.803 360.753 345.611 360.753C343.019 360.753 341 359.141 341 355.912C341 353.391 342.356 351.673 344.285 350.834C345.957 350.092 348.293 349.961 350.078 349.755V349.353C350.078 348.615 350.135 347.741 349.706 347.103C349.329 346.531 348.609 346.295 347.977 346.295C346.802 346.295 345.754 346.902 345.498 348.16C345.446 348.44 345.242 348.715 344.965 348.728L341.975 348.405C341.724 348.348 341.446 348.143 341.516 347.754C342.205 344.101 345.476 343 348.406 343C349.905 343 351.864 343.402 353.047 344.547C354.546 345.958 354.403 347.841 354.403 349.891V354.732C354.403 356.187 355.001 356.825 355.564 357.612C355.764 357.891 355.807 358.228 355.556 358.437C354.927 358.966 353.809 359.949 353.194 360.5L353.185 360.491Z" fill="#F1F6FA"/>
<defs>
<clipPath id="clip0_1040_38584">
<rect width="102" height="38" fill="white" transform="translate(340 189)"/>
</clipPath>
<clipPath id="clip1_1040_38584">
<rect width="72" height="48" fill="white" transform="translate(79 184)"/>
</clipPath>
<clipPath id="clip2_1040_38584">
<rect width="116" height="40" fill="white" transform="translate(57 334)"/>
</clipPath>
</defs>
</svg>
