<svg width="68" height="30" viewBox="0 0 68 30" fill="none" xmlns="http://www.w3.org/2000/svg">
<path d="M5.24 12.672C5.24 13.632 5.34667 14.5707 5.56 15.488C5.79467 16.384 6.15733 17.1947 6.648 17.92C7.13867 18.6453 7.77867 19.232 8.568 19.68C9.35733 20.1067 10.3173 20.32 11.448 20.32C12.5787 20.32 13.5387 20.1067 14.328 19.68C15.1173 19.232 15.7573 18.6453 16.248 17.92C16.7387 17.1947 17.0907 16.384 17.304 15.488C17.5387 14.5707 17.656 13.632 17.656 12.672C17.656 11.6693 17.5387 10.6987 17.304 9.76C17.0907 8.82133 16.7387 7.98933 16.248 7.264C15.7573 6.51733 15.1173 5.93067 14.328 5.504C13.5387 5.056 12.5787 4.832 11.448 4.832C10.3173 4.832 9.35733 5.056 8.568 5.504C7.77867 5.93067 7.13867 6.51733 6.648 7.264C6.15733 7.98933 5.79467 8.82133 5.56 9.76C5.34667 10.6987 5.24 11.6693 5.24 12.672ZM0.216 12.672C0.216 10.9653 0.472 9.38667 0.984 7.936C1.496 6.464 2.232 5.184 3.192 4.096C4.152 3.008 5.32533 2.15467 6.712 1.536C8.12 0.917333 9.69867 0.608 11.448 0.608C13.2187 0.608 14.7973 0.917333 16.184 1.536C17.5707 2.15467 18.744 3.008 19.704 4.096C20.664 5.184 21.4 6.464 21.912 7.936C22.424 9.38667 22.68 10.9653 22.68 12.672C22.68 14.336 22.424 15.8933 21.912 17.344C21.4 18.7733 20.664 20.0213 19.704 21.088C18.744 22.1547 17.5707 22.9973 16.184 23.616C14.7973 24.2133 13.2187 24.512 11.448 24.512C9.69867 24.512 8.12 24.2133 6.712 23.616C5.32533 22.9973 4.152 22.1547 3.192 21.088C2.232 20.0213 1.496 18.7733 0.984 17.344C0.472 15.8933 0.216 14.336 0.216 12.672ZM22.6343 7.456H26.9543V9.76H27.0503C27.6263 8.8 28.3729 8.10667 29.2903 7.68C30.2076 7.232 31.1463 7.008 32.1063 7.008C33.3223 7.008 34.3143 7.17867 35.0823 7.52C35.8716 7.84 36.4903 8.29867 36.9383 8.896C37.3863 9.472 37.6956 10.1867 37.8663 11.04C38.0583 11.872 38.1543 12.8 38.1543 13.824V24H33.6103V14.656C33.6103 13.2907 33.3969 12.2773 32.9703 11.616C32.5436 10.9333 31.7863 10.592 30.6983 10.592C29.4609 10.592 28.5649 10.9653 28.0103 11.712C27.4556 12.4373 27.1783 13.6427 27.1783 15.328V24H22.6343V7.456ZM46.763 26.048C46.2723 27.392 45.5897 28.352 44.715 28.928C43.8403 29.504 42.6243 29.792 41.067 29.792C40.5977 29.792 40.1283 29.7707 39.659 29.728C39.211 29.7067 38.7523 29.6747 38.283 29.632V25.888C38.7097 25.9307 39.147 25.9733 39.595 26.016C40.043 26.0587 40.491 26.0693 40.939 26.048C41.5363 25.984 41.9737 25.7493 42.251 25.344C42.5497 24.9387 42.699 24.4907 42.699 24C42.699 23.6373 42.635 23.296 42.507 22.976L36.715 7.456H41.547L45.291 18.784H45.355L48.971 7.456H53.675L46.763 26.048ZM56.4208 15.296L50.9808 7.456H56.1648L59.0768 11.776L61.9568 7.456H66.9808L61.5408 15.2L67.6528 24H62.4688L59.0128 18.784L55.5568 24H50.4688L56.4208 15.296Z" fill="white"/>
</svg>
