<svg width="1440" height="631" viewBox="0 0 1440 631" fill="none" xmlns="http://www.w3.org/2000/svg">
<path d="M1874.31 491.055C2036.51 613.384 2140.21 622.759 2327.05 630.242L2326.07 625.559C2142.33 618.246 2041.11 609.675 1881.09 489.273C1859.6 469.683 1837.65 449.3 1816.62 429.699C1684.27 306.425 1520.61 217.695 1333.1 149.399C1107.56 67.1287 874.957 93.0608 649.78 118.165L648.394 118.319L644.395 118.765C544.209 129.925 440.662 141.46 338.656 143.243C205.407 145.68 -48.4407 130.413 -253.212 1.10234L-258.521 4.08595C-51.049 135.063 205.661 150.568 340.27 148.096C444.03 146.155 549.093 134.411 650.682 123.054L650.948 123.025L651.841 122.925C875.779 97.9634 1107.37 72.1482 1330.21 153.436C1515.23 220.929 1678.23 308.808 1809.83 431.481C1830.87 451.082 1852.82 471.465 1874.31 491.055Z" fill="#4E6DDF" stroke="#4E6DDF"/>
</svg>
