<?xml version="1.0" standalone="no"?>
<svg xmlns:xlink="http://www.w3.org/1999/xlink" id="wave" style="transform:rotate(0deg); transition: 0.3s" viewBox="0 0 1440 100" version="1.1" xmlns="http://www.w3.org/2000/svg"><defs><linearGradient id="sw-gradient-0" x1="0" x2="0" y1="1" y2="0"><stop stop-color="rgba(255, 255, 255, 1)" offset="0%"/><stop stop-color="rgba(255, 255, 255, 1)" offset="100%"/></linearGradient></defs><path style="transform:translate(0, 0px); opacity:1" fill="url(#sw-gradient-0)" d="M0,10L60,23.3C120,37,240,63,360,76.7C480,90,600,90,720,80C840,70,960,50,1080,40C1200,30,1320,30,1440,40C1560,50,1680,70,1800,70C1920,70,2040,50,2160,50C2280,50,2400,70,2520,70C2640,70,2760,50,2880,50C3000,50,3120,70,3240,70C3360,70,3480,50,3600,43.3C3720,37,3840,43,3960,51.7C4080,60,4200,70,4320,66.7C4440,63,4560,47,4680,48.3C4800,50,4920,70,5040,75C5160,80,5280,70,5400,66.7C5520,63,5640,67,5760,58.3C5880,50,6000,30,6120,23.3C6240,17,6360,23,6480,36.7C6600,50,6720,70,6840,75C6960,80,7080,70,7200,65C7320,60,7440,60,7560,55C7680,50,7800,40,7920,41.7C8040,43,8160,57,8280,51.7C8400,47,8520,23,8580,11.7L8640,0L8640,100L8580,100C8520,100,8400,100,8280,100C8160,100,8040,100,7920,100C7800,100,7680,100,7560,100C7440,100,7320,100,7200,100C7080,100,6960,100,6840,100C6720,100,6600,100,6480,100C6360,100,6240,100,6120,100C6000,100,5880,100,5760,100C5640,100,5520,100,5400,100C5280,100,5160,100,5040,100C4920,100,4800,100,4680,100C4560,100,4440,100,4320,100C4200,100,4080,100,3960,100C3840,100,3720,100,3600,100C3480,100,3360,100,3240,100C3120,100,3000,100,2880,100C2760,100,2640,100,2520,100C2400,100,2280,100,2160,100C2040,100,1920,100,1800,100C1680,100,1560,100,1440,100C1320,100,1200,100,1080,100C960,100,840,100,720,100C600,100,480,100,360,100C240,100,120,100,60,100L0,100Z"/></svg>