<svg width="141" height="29" viewBox="0 0 141 29" fill="none" xmlns="http://www.w3.org/2000/svg">
<path d="M13.811 1.56487C16.1125 1.56487 18.5241 2.0638 21.046 3.06168C21.4622 3.25639 21.7805 3.35375 22.0008 3.35375C22.2702 3.35375 22.4721 3.24422 22.6068 3.02518C22.7414 2.80613 22.8577 2.36804 22.9557 1.7109H23.6902V9.37753L23.0291 9.34102C22.3925 8.22144 21.8539 7.3696 21.4132 6.78548C20.9725 6.20135 20.4339 5.60506 19.7973 4.99659C18.1324 3.51194 16.3941 2.76962 14.5823 2.76962C12.1584 2.76962 10.2486 3.85267 8.85307 6.01881C7.4575 8.18495 6.75974 11.1664 6.75974 14.9632C6.75974 18.76 7.4575 21.8023 8.85307 24.0902C10.2486 26.378 12.1216 27.5219 14.4721 27.5219C16.5532 27.5219 18.4507 26.67 20.1645 24.9663C20.8011 24.3579 21.3459 23.719 21.7988 23.0497C22.2518 22.3804 22.7965 21.3642 23.4331 20.0013H24.0574V28.6171H23.3597C23.1393 27.7653 22.9434 27.2177 22.7721 26.9743C22.6007 26.7309 22.3436 26.6092 22.0008 26.6092C21.8784 26.6092 21.7253 26.6335 21.5417 26.6822C21.3581 26.7309 21.0949 26.8404 20.7521 27.0108C18.4017 28.179 15.9901 28.7631 13.5172 28.7631C9.59983 28.7631 6.46595 27.5341 4.11551 25.0759C1.76506 22.6177 0.589844 19.3442 0.589844 15.2553C0.589844 11.1664 1.80791 7.86247 4.24404 5.34342C6.68018 2.82437 9.86912 1.56487 13.811 1.56487ZM67.9959 11.9342C70.7382 11.9342 72.932 12.6822 74.5774 14.1781C76.2228 15.674 77.0455 17.6798 77.0455 20.1957C77.0455 22.7795 76.2114 24.8534 74.5431 26.4173C72.8749 27.9812 70.6469 28.7631 67.8589 28.7631C65.0937 28.7631 62.8656 27.9925 61.1745 26.4513C59.4834 24.91 58.6379 22.8589 58.6379 20.2977C58.6379 17.7592 59.4834 15.7306 61.1745 14.2121C62.8656 12.6935 65.1394 11.9342 67.9959 11.9342ZM110.425 12.0022C112.248 12.0022 113.738 12.4328 114.895 13.2941C116.053 14.1554 116.632 15.266 116.632 16.6259C116.632 17.4419 116.423 18.0935 116.005 18.5808C115.587 19.0681 115.035 19.3117 114.349 19.3117C113.705 19.3117 113.169 19.0964 112.741 18.6658C112.312 18.2351 112.098 17.6912 112.098 17.0339C112.098 16.6939 112.194 16.1613 112.387 15.436C112.537 15.028 112.612 14.6994 112.612 14.4501C112.612 14.0421 112.425 13.6964 112.049 13.4131C111.674 13.1298 111.219 12.9881 110.683 12.9881C109.547 12.9881 108.625 13.5434 107.917 14.654C107.21 15.7646 106.856 17.2039 106.856 18.9718C106.856 21.1023 107.36 22.8702 108.367 24.2754C109.375 25.6807 110.64 26.3833 112.162 26.3833C112.441 26.3833 112.719 26.3493 112.998 26.2813C113.277 26.2133 113.587 26.1226 113.93 26.0093C114.552 25.7373 115.324 25.148 116.246 24.2414L116.728 24.8194C116.256 25.4994 115.876 26.0037 115.587 26.3323C115.297 26.6609 114.906 27.0066 114.413 27.3692C113.127 28.2532 111.658 28.6951 110.007 28.6951C107.692 28.6951 105.816 27.9245 104.38 26.3833C102.944 24.8421 102.226 22.8362 102.226 20.3657C102.226 17.8725 102.976 15.8553 104.477 14.3141C105.977 12.7728 107.96 12.0022 110.425 12.0022ZM132.509 12.0022C134.886 12.0022 136.771 12.7841 138.165 14.3481C138.714 14.96 139.125 15.606 139.399 16.2859C139.674 16.9659 139.902 18.7251 140.085 19.9943H128.979C128.979 22.1929 129.51 23.1592 130.573 24.4624C131.635 25.7657 133.035 26.4173 134.772 26.4173C135.777 26.4173 136.726 26.1 137.617 25.4654C137.868 25.284 138.114 25.0914 138.354 24.8874L139.194 24.1734L139.674 24.7514C139.079 25.522 138.611 26.0886 138.268 26.4513C137.925 26.8139 137.503 27.1539 137 27.4712C135.743 28.2872 134.246 28.6951 132.509 28.6951C130.041 28.6951 128.025 27.9075 126.459 26.3323C124.894 24.7571 124.111 22.7229 124.111 20.2297C124.111 17.8272 124.888 15.8553 126.442 14.3141C127.996 12.7728 130.018 12.0022 132.509 12.0022ZM33.098 2.10622V14.62C33.6913 14.1667 34.1469 13.8268 34.4647 13.6001C34.7826 13.3735 35.1322 13.1581 35.5136 12.9541C36.7639 12.3195 36.8851 12.0022 37.987 12.0022C41.0808 12.0022 42.6277 13.6228 42.6277 16.8639V25.3294C42.6277 26.1226 42.723 26.6779 42.9137 26.9953C43.1044 27.3126 43.4435 27.4712 43.9308 27.4712L44.4712 27.5392V28.3212H36.5885V27.5392L37.1289 27.4712C37.9129 27.4712 38.3049 26.7573 38.3049 25.3294V17.2379C38.3049 15.1527 38.5121 14.1101 36.8169 14.1101C36.6473 14.1101 36.4566 14.1327 36.2447 14.1781C36.0328 14.2234 35.8103 14.2801 35.5772 14.3481L34.5601 14.858L33.6066 15.708C33.2675 16.1159 33.098 16.3879 33.098 16.5239V26.0433C33.098 26.9953 33.4264 27.4712 34.0833 27.4712L34.6554 27.5392V28.3212H26.8046V27.5392L27.3449 27.4712C27.7687 27.4712 28.1078 27.3352 28.362 27.0633C28.5316 26.9273 28.6428 26.6666 28.6958 26.2813C28.7488 25.896 28.7752 25.2727 28.7752 24.4114V5.33601L26.8364 4.62206L26.8682 4.07809C28.3091 3.78344 29.3209 3.53979 29.9036 3.34714C30.4863 3.15448 31.3816 2.74085 32.5894 2.10622H33.098ZM56.6001 12.1042C57.3542 12.1042 57.9826 12.3422 58.4854 12.8182C58.9881 13.2941 59.2396 13.9061 59.2396 14.654C59.2396 15.3793 59.0225 15.9573 58.5883 16.3879C58.1541 16.8186 57.5599 17.0339 56.8058 17.0339C55.9374 17.0339 55.4289 16.6769 55.2804 15.963C55.1318 15.249 54.7947 14.892 54.2691 14.892C53.7435 14.892 53.2351 15.2887 52.7438 16.0819C52.2524 16.8752 52.0068 17.7592 52.0068 18.7338V25.2954C52.0068 25.9527 52.0239 26.3606 52.0582 26.5193C52.0925 26.6779 52.201 26.8479 52.3838 27.0293C52.5895 27.3239 52.9437 27.4712 53.4465 27.4712L54.0635 27.5392V28.3212H45.2196V27.5392L45.8709 27.4712C46.8536 27.4712 47.3449 26.8026 47.3449 25.4654V25.3294L47.3106 24.6834V15.368L45.2196 14.688L45.2539 14.1441C46.8078 13.8494 47.8991 13.6001 48.5275 13.3961C49.1559 13.1921 50.1443 12.7728 51.4926 12.1382H51.9725V15.504C52.4524 14.8467 52.778 14.4217 52.9494 14.2291C53.1208 14.0364 53.4464 13.7248 53.9264 13.2941C54.8176 12.5008 55.7088 12.1042 56.6001 12.1042ZM87.0613 12.0702C88.4215 12.0702 89.5 12.4895 90.2968 13.3281C91.0935 14.1667 91.4918 15.3 91.4918 16.7279V25.2954C91.4918 26.7686 91.8708 27.5052 92.6287 27.5052H93.1533V28.3212H85.9828V27.5052L86.4492 27.4712C87.1487 27.4712 87.4986 26.7459 87.4986 25.2954V16.9319C87.4986 16.0933 87.2751 15.4247 86.8281 14.926C86.3812 14.4274 85.7788 14.1781 85.021 14.1781C84.2048 14.1781 83.4615 14.4557 82.791 15.011C82.1206 15.5663 81.7855 16.1839 81.7855 16.8639V25.2954C81.7855 25.93 81.8 26.3323 81.8292 26.5023C81.8583 26.6723 81.9409 26.8593 82.0769 27.0633C82.213 27.3352 82.4461 27.4712 82.7765 27.4712L83.272 27.5052V28.3212H76.0141V27.5052H76.5387C76.9857 27.4599 77.2966 27.3126 77.4715 27.0633C77.7047 26.7913 77.8213 26.032 77.8213 24.7854V15.368L76.0432 14.688V14.1441C77.3063 13.8948 78.2148 13.6624 78.7686 13.4471C79.3224 13.2318 80.1726 12.7955 81.3191 12.1382H81.7855V14.552C82.3684 14.0534 82.8056 13.7021 83.0971 13.4981C83.3886 13.2941 83.7092 13.1015 84.059 12.9201C84.506 12.6708 84.9967 12.4668 85.531 12.3082C86.0654 12.1495 86.5755 12.0702 87.0613 12.0702ZM101.068 12.1382V25.3294C101.068 26.7573 101.537 27.4712 102.474 27.4712L103.091 27.5392V28.3212H94.3152V27.5392L94.9665 27.4712C95.4236 27.4712 95.7663 27.3352 95.9949 27.0633C96.2691 26.7913 96.4062 26.032 96.4062 24.7854V15.368L94.3152 14.688L94.3838 14.1441C95.9606 13.8268 97.0518 13.5718 97.6573 13.3791C98.2629 13.1865 99.2285 12.7728 100.554 12.1382H101.068ZM123.183 2.10622V25.3294C123.183 26.7573 123.64 27.4712 124.554 27.4712L125.137 27.5392V28.3212H116.464V27.5392L117.081 27.4712C117.584 27.4712 117.938 27.3352 118.144 27.0633C118.304 26.9273 118.407 26.7006 118.453 26.3833C118.498 26.066 118.521 25.488 118.521 24.6494V5.33601L116.464 4.62206L116.499 4.07809C118.053 3.78344 119.132 3.53979 119.738 3.34714C120.344 3.15448 121.321 2.74085 122.669 2.10622H123.183ZM67.9617 12.9541C66.6591 12.9541 65.6307 13.5888 64.8766 14.858C64.1225 16.1273 63.7454 17.8385 63.7454 19.9917C63.7454 22.2356 64.1339 24.0771 64.9109 25.5163C65.6879 26.9556 66.682 27.6752 67.8931 27.6752C69.1957 27.6752 70.2069 27.0803 70.9268 25.8903C71.6466 24.7004 72.0065 23.0289 72.0065 20.8756C72.0065 18.4051 71.6523 16.4673 70.9439 15.062C70.2355 13.6568 69.2414 12.9541 67.9617 12.9541ZM132.544 13.1921C131.492 13.1921 130.601 13.7701 129.87 14.926C129.573 15.47 129.35 15.98 129.202 16.4559C129.053 16.9319 128.979 17.5438 128.979 18.2918H135.732C135.732 17.5438 135.703 16.9772 135.646 16.5919C135.589 16.2066 135.469 15.7646 135.286 15.266C134.783 13.8834 133.869 13.1921 132.544 13.1921ZM98.5315 2.79925C99.3085 2.79925 99.9826 3.14862 100.554 3.84738C101.125 4.54614 101.411 5.41038 101.411 6.44012C101.411 7.39632 101.137 8.20539 100.588 8.86737C100.04 9.52936 99.3542 9.86034 98.5315 9.86034C97.7545 9.86034 97.0803 9.52936 96.509 8.86737C95.9377 8.20539 95.6521 7.39632 95.6521 6.44012C95.6521 5.41038 95.9263 4.54614 96.4747 3.84738C97.0232 3.14862 97.7088 2.79925 98.5315 2.79925ZM76.096 0.588379L79.2854 8.08775C79.3592 8.26349 79.4294 8.40262 79.4958 8.50513C79.5623 8.60765 79.6361 8.69186 79.7173 8.75776C79.7616 8.79438 79.8391 8.83282 79.9498 8.8731L80.0311 8.899L79.9705 8.92033L79.8529 8.95548V9.23007H76.4192V8.95548H76.696C77.0799 8.95548 77.2719 8.57313 77.2719 8.33148L77.2387 8.17771L77.1501 7.95803L76.8711 7.52338C76.8416 7.45748 76.812 7.4172 76.7825 7.40256C76.753 7.38791 76.6792 7.38059 76.561 7.38059H73.9585C73.8994 7.38059 73.8588 7.38791 73.8366 7.40256C73.8145 7.4172 73.7813 7.46846 73.737 7.55633L73.593 7.40674C73.4971 7.67036 73.4491 7.89736 73.4491 8.08775C73.4491 8.66623 73.8034 8.95548 74.5122 8.95548V9.23007L71.5524 9.22958L71.5525 9.32893H71.3421C71.2757 9.07264 71.2166 8.90788 71.1649 8.83465C71.1132 8.76143 71.0357 8.72481 70.9323 8.72481C70.8954 8.72481 70.8493 8.73213 70.7939 8.74678C70.7385 8.76143 70.6592 8.79438 70.5558 8.84564C69.847 9.19712 69.1198 9.37286 68.3741 9.37286C67.1928 9.37286 66.2478 9.00308 65.539 8.26349C64.8303 7.5239 64.4759 6.53902 64.4759 5.30881C64.4759 4.07861 64.8432 3.08457 65.5778 2.32668C66.3124 1.56879 67.274 1.18984 68.4627 1.18984C69.1567 1.18984 69.8839 1.33996 70.6444 1.64018C70.7699 1.69877 70.8659 1.72806 70.9323 1.72806C71.0135 1.72806 71.0745 1.6951 71.1151 1.6292C71.1557 1.5633 71.1908 1.43149 71.2203 1.23378H71.4418V3.5404L71.2425 3.52942C71.0505 3.19258 70.8881 2.93629 70.7552 2.76054C70.6223 2.5848 70.4598 2.4054 70.2679 2.22233C69.7658 1.77565 69.2416 1.55231 68.6953 1.55231C67.9643 1.55231 67.3885 1.87817 66.9677 2.52988C66.5468 3.1816 66.3364 4.07861 66.3364 5.22094C66.3364 6.36328 66.5468 7.27859 66.9677 7.96692C67.3885 8.65525 67.9533 8.99941 68.6621 8.99941C69.2897 8.99941 69.8618 8.74312 70.3786 8.23054C70.5706 8.04747 70.7349 7.85525 70.8715 7.65388C71.0081 7.45251 71.1723 7.14679 71.3643 6.73672H71.5525L71.5524 8.92717L71.6227 8.91001C71.9088 8.8256 72.141 8.69796 72.3195 8.5271C72.3933 8.4612 72.456 8.39713 72.5077 8.33488C72.5594 8.27264 72.6222 8.19392 72.696 8.09873C72.8215 7.90834 72.947 7.69599 73.0725 7.46166C73.1981 7.22734 73.3014 7.01498 73.3826 6.82459L74.8445 3.17663V2.60677C74.8445 2.56123 74.7638 2.52813 74.6025 2.50747C75.0234 2.31708 75.1031 1.90183 75.257 1.71794C75.4109 1.53405 75.6248 0.622574 75.6248 0.588379H76.096ZM60.6081 1.18984C61.3021 1.18984 62.0293 1.33996 62.7898 1.64018C62.9153 1.69877 63.0113 1.72806 63.0777 1.72806C63.1589 1.72806 63.2199 1.6951 63.2605 1.6292C63.3011 1.5633 63.3361 1.43149 63.3657 1.23378H63.5871V3.5404L63.3878 3.52942C63.1958 3.19258 63.0334 2.93629 62.9005 2.76054C62.7676 2.5848 62.6052 2.4054 62.4132 2.22233C61.9112 1.77565 61.387 1.55231 60.8406 1.55231C60.1097 1.55231 59.5338 1.87817 59.113 2.52988C58.6921 3.1816 58.4817 4.07861 58.4817 5.22094C58.4817 6.36328 58.6921 7.27859 59.113 7.96692C59.5338 8.65525 60.0986 8.99941 60.8074 8.99941C61.435 8.99941 62.0072 8.74312 62.524 8.23054C62.7159 8.04747 62.8802 7.85525 63.0168 7.65388C63.1534 7.45251 63.3177 7.14679 63.5096 6.73672H63.6979V9.32893H63.4875C63.421 9.07264 63.362 8.90788 63.3103 8.83465C63.2586 8.76143 63.1811 8.72481 63.0777 8.72481C63.0408 8.72481 62.9947 8.73213 62.9393 8.74678C62.8839 8.76143 62.8045 8.79438 62.7012 8.84564C61.9924 9.19712 61.2652 9.37286 60.5195 9.37286C59.3382 9.37286 58.3932 9.00308 57.6844 8.26349C56.9756 7.5239 56.6212 6.53902 56.6212 5.30881C56.6212 4.07861 56.9885 3.08457 57.7231 2.32668C58.4578 1.56879 59.4194 1.18984 60.6081 1.18984ZM82.3226 1.31067L86.9628 6.94542L87.129 7.14313L87.14 6.91247V3.63926C87.14 3.16329 87.1253 2.83377 87.0957 2.65071C87.0662 2.46764 86.9923 2.29373 86.8742 2.12897C86.7561 1.96421 86.6103 1.84156 86.4368 1.76101C86.2632 1.68046 86.0252 1.62188 85.7225 1.58526V1.31067H88.6461V1.58526C88.2401 1.66581 87.9632 1.82874 87.8156 2.07405C87.6679 2.31936 87.5941 2.73491 87.5941 3.32072V9.28499H86.5752L81.5695 3.12301L81.4255 2.96924C81.4108 2.99853 81.3997 3.03148 81.3923 3.06809C81.3849 3.10471 81.3812 3.15597 81.3812 3.22187V7.43969C81.3812 7.68866 81.3997 7.88271 81.4366 8.02184C81.4735 8.16097 81.5381 8.29095 81.6304 8.41177C81.7227 8.53259 81.8316 8.6406 81.9571 8.7358C82.0383 8.77973 82.1269 8.82184 82.2229 8.86211C82.3189 8.90239 82.4665 8.93351 82.6659 8.95548V9.23007H80.4925V8.95548L80.2267 8.93351C80.1529 8.93351 80.0606 8.91337 79.9498 8.8731L80.0311 8.899L80.0753 8.88518C80.1737 8.85003 80.2527 8.81488 80.3125 8.77973C80.4122 8.72115 80.5064 8.63328 80.595 8.51612C80.7205 8.36234 80.8054 8.17379 80.8497 7.95045C80.894 7.72711 80.9161 7.39942 80.9161 6.96739V2.7935C80.9161 2.58846 80.9106 2.46032 80.8995 2.40906C80.8884 2.3578 80.8552 2.28457 80.7998 2.18938C80.7444 2.09419 80.702 2.03561 80.6725 2.01364C80.5543 1.87451 80.4731 1.79396 80.4288 1.77199L80.2848 1.67314L80.1409 1.60723L79.8751 1.58526V1.31067H82.3226ZM44.3561 1.25575C45.0132 1.25575 45.5577 1.307 45.9896 1.40952C46.4215 1.51204 46.8294 1.69144 47.2134 1.94773C47.7154 2.2919 48.103 2.74773 48.3762 3.31523C48.6494 3.88274 48.786 4.52895 48.786 5.25389C48.786 6.46945 48.4371 7.43786 47.7394 8.15914C47.0417 8.88042 46.1022 9.24106 44.9209 9.24106L44.035 9.23007L43.1158 9.21909L42.3295 9.23007H40.624V8.95548H40.8787C41.0559 8.95548 41.2036 8.91154 41.3217 8.82367C41.3734 8.77973 41.4103 8.71749 41.4324 8.63694C41.4546 8.55639 41.4657 8.42825 41.4657 8.2525V2.28824C41.4657 2.07588 41.4619 1.94041 41.4546 1.88183C41.4472 1.82325 41.4177 1.77199 41.366 1.72806C41.2774 1.64018 41.1224 1.59625 40.9009 1.59625L40.6351 1.58526V1.31067H41.9972L42.695 1.29968L43.5145 1.26673L44.3561 1.25575ZM55.0791 1.31067L55.8321 3.03514L55.5996 3.16695C55.4298 2.93995 55.2784 2.75505 55.1455 2.61226C55.0126 2.46947 54.8687 2.33949 54.7136 2.22233C54.4478 2.0173 54.1931 1.86719 53.9495 1.77199C53.7058 1.6768 53.4622 1.6292 53.2185 1.6292H52.388C52.1443 1.6292 51.9967 1.66947 51.945 1.75002C51.9081 1.78664 51.8859 1.82691 51.8786 1.87085C51.8727 1.906 51.8691 1.98098 51.8679 2.0958L51.8675 4.94634H52.4212C52.7682 4.94634 53.0303 4.87312 53.2075 4.72667C53.3773 4.6095 53.5305 4.44292 53.6671 4.2269C53.8037 4.01088 53.883 3.80768 53.9052 3.61729L53.9273 3.45253H54.182V6.84656H53.9273L53.9052 6.6818C53.8904 6.56464 53.8461 6.42734 53.7723 6.26991C53.6984 6.11247 53.5988 5.95687 53.4733 5.80309C53.2149 5.45893 52.8753 5.28685 52.4544 5.28685H51.8786V8.63694C51.8859 8.68088 51.9173 8.73946 51.9727 8.81268C52.028 8.88591 52.1776 8.92252 52.4212 8.92252H53.3293C53.8831 8.92252 54.3482 8.79438 54.7247 8.53809C54.9019 8.4136 55.0717 8.26715 55.2341 8.09873C55.3966 7.93031 55.5313 7.77654 55.6384 7.6374C55.7454 7.49827 55.8875 7.28592 56.0647 7.00034L56.253 7.07722L55.7104 9.23007L49.2649 9.24106V8.95548H49.4864C49.7005 8.95548 49.8592 8.91154 49.9626 8.82367C50.0217 8.77973 50.0604 8.71932 50.0789 8.64243C50.0973 8.56555 50.1066 8.43557 50.1066 8.2525V8.05479L50.1177 2.28824V2.02462C50.1177 1.89281 50.077 1.79396 49.9958 1.72806C49.8925 1.64018 49.7338 1.59625 49.5197 1.59625L49.2649 1.58526V1.31067H55.0791ZM71.5524 8.92717L71.4446 8.95548V9.23007L71.5524 9.22958V8.92717ZM44.2454 1.57428H43.9021C43.6289 1.57428 43.4406 1.63286 43.3373 1.75002C43.293 1.79396 43.2634 1.85071 43.2487 1.92027C43.2339 1.98984 43.2265 2.10517 43.2265 2.26627L43.2155 8.1207C43.2155 8.3477 43.2191 8.48866 43.2265 8.54358C43.2339 8.5985 43.2598 8.65159 43.3041 8.70285C43.3926 8.84198 43.5809 8.91154 43.8688 8.91154H44.3783C45.1609 8.91154 45.77 8.59301 46.2056 7.95594C46.6412 7.31887 46.859 6.42918 46.859 5.28685C46.859 4.08593 46.6338 3.16695 46.1835 2.52988C45.7331 1.89281 45.087 1.57428 44.2454 1.57428ZM75.2764 3.8877L75.232 3.95361C75.2173 3.97558 75.1988 4.01219 75.1767 4.06345L74.0249 6.80943L73.9917 6.9632C73.9917 7.00714 74.0471 7.0291 74.1578 7.0291H76.4392C76.4687 7.0291 76.4964 7.02544 76.5223 7.01812C76.5481 7.0108 76.5758 6.99981 76.6053 6.98517L76.5499 6.84238L75.365 4.01951C75.3502 3.97557 75.3336 3.94445 75.3151 3.92615L75.2764 3.8877Z" fill="black" fill-opacity="0.5"/>
</svg>
