<svg width="141" height="18" viewBox="0 0 141 18" fill="none" xmlns="http://www.w3.org/2000/svg">
<g clip-path="url(#clip0_1040_37352)">
<path d="M11.118 16.8233H5.12227V16.5367L5.62792 16.5128C6.80781 16.465 7.02453 16.1784 7.02453 12.9066V4.5955C7.02453 1.37139 6.95229 1.03703 5.89279 1.03703H5.36304C4.15907 1.03703 2.83471 1.41915 1.75114 4.71492L1.48626 5.52692H1.26953V0.726562H14.9708V5.52692H14.754L14.4892 4.71492C13.4056 1.41915 12.0812 1.03703 10.8773 1.03703H10.3475C9.28802 1.03703 9.21578 1.37139 9.21578 4.5955V12.9066C9.21578 16.1784 9.4325 16.465 10.6124 16.5128L11.118 16.5367V16.8233ZM34.3126 16.8233H28.3168V16.5367L28.8225 16.5128C30.0024 16.465 30.2191 16.1784 30.2191 12.9066V8.70327H21.1411V12.9066C21.1411 16.1784 21.3578 16.465 22.5377 16.5128L23.0434 16.5367V16.8233H17.0476V16.5367L17.5533 16.5128C18.7332 16.465 18.9499 16.1784 18.9499 12.9066V4.64327C18.9499 1.37139 18.7332 1.0848 17.5533 1.03703L17.0476 1.01315V0.726562H23.0434V1.01315L22.5377 1.03703C21.3578 1.0848 21.1411 1.37139 21.1411 4.64327V8.41668H30.2191V4.64327C30.2191 1.37139 30.0024 1.0848 28.8225 1.03703L28.3168 1.01315V0.726562H34.3126V1.01315L33.8069 1.03703C32.627 1.0848 32.4104 1.37139 32.4104 4.64327V12.9066C32.4104 16.1784 32.627 16.465 33.8069 16.5128L34.3126 16.5367V16.8233ZM48.67 16.8233H36.3895V16.5367L36.8951 16.5128C38.075 16.465 38.2917 16.1784 38.2917 12.9066V4.64327C38.2917 1.37139 38.075 1.0848 36.8951 1.03703L36.3895 1.01315V0.726562H48.1884V5.04927H47.9717L47.7068 4.23727C46.7677 1.41915 45.034 1.03703 42.7946 1.03703H41.6147C40.5552 1.03703 40.483 1.41915 40.483 4.64327V8.41668H41.8555C42.9632 8.41668 44.1671 8.27339 44.6969 6.3628L44.8414 5.83739H45.0581V11.2826H44.8414L44.6969 10.7572C44.1671 8.84656 42.9632 8.70327 41.8555 8.70327H40.483V12.9066C40.483 16.1307 40.5552 16.5128 41.6147 16.5128H43.2762C45.7323 16.5128 47.0807 15.9396 48.1884 12.5961L48.4533 11.7841H48.67V16.8233ZM76.2207 16.8233H70.4535V16.5367L70.9399 16.5128C72.0748 16.465 72.2833 16.1784 72.2833 12.9066V8.70327H63.5515V12.9066C63.5515 16.1784 63.76 16.465 64.8949 16.5128L65.3812 16.5367V16.8233H59.6141V16.5367L60.1005 16.5128C61.2354 16.465 61.4438 16.1784 61.4438 12.9066V4.64327C61.4438 1.37139 61.2354 1.0848 60.1005 1.03703L59.6141 1.01315V0.726562H65.3812V1.01315L64.8949 1.03703C63.76 1.0848 63.5515 1.37139 63.5515 4.64327V8.41668H72.2833V4.64327C72.2833 1.37139 72.0748 1.0848 70.9399 1.03703L70.4535 1.01315V0.726562H76.2207V1.01315L75.7343 1.03703C74.5994 1.0848 74.3909 1.37139 74.3909 4.64327V12.9066C74.3909 16.1784 74.5994 16.465 75.7343 16.5128L76.2207 16.5367V16.8233ZM84.9518 16.8233H78.9559V16.5367L79.4616 16.5128C80.6415 16.465 80.8582 16.1784 80.8582 12.9066V4.64327C80.8582 1.37139 80.6415 1.0848 79.4616 1.03703L78.9559 1.01315V0.726562H84.9518V1.01315L84.4461 1.03703C83.2662 1.0848 83.0495 1.37139 83.0495 4.64327V12.9066C83.0495 16.1784 83.2662 16.465 84.4461 16.5128L84.9518 16.5367V16.8233ZM102.247 16.6256H100.105L89.7078 3.9515V11.0915C89.7078 13.6947 90.183 16.0565 91.6759 16.1282L92.1816 16.1521V16.4386H86.9082V16.1521L87.173 16.1282C88.3529 16.0326 88.9309 14.7216 88.9309 11.0915V4.42833C88.9309 1.3475 88.4493 1.0848 87.3416 1.03703L86.9082 1.01315V0.726562H90.9054L101.474 13.9096V6.24339C101.474 3.7835 101.019 1.10868 99.4777 1.03703L98.972 1.01315V0.726562H104.245V1.01315L103.981 1.03703C102.728 1.13256 102.247 2.85209 102.247 6.24339V16.6256ZM121.409 8.75103C121.409 13.1693 118.399 16.8233 113.197 16.8233H105.372V16.5367L105.877 16.5128C107.057 16.465 107.274 16.1784 107.274 12.9066V4.64327C107.274 1.37139 107.057 1.0848 105.877 1.03703L105.372 1.01315V0.726562H113.173C118.567 0.726562 121.409 4.35668 121.409 8.75103ZM118.348 8.77491C118.348 4.86315 116.658 1.36315 113.299 1.36315H111.038C110.108 1.36315 110.045 1.72916 110.045 4.8174V12.7324C110.045 15.8207 110.108 16.1867 111.038 16.1867H113.299C116.933 16.1867 118.348 12.5265 118.348 8.77491ZM131.42 17.086C127.278 17.086 124.654 14.9604 124.654 11.4975V4.64327C124.654 1.37139 124.437 1.0848 123.257 1.03703L122.751 1.01315V0.726562H128.747V1.01315L128.241 1.03703C127.062 1.0848 126.845 1.37139 126.845 4.64327V11.4736C126.845 14.5306 128.699 16.4889 132.287 16.4889C135.778 16.4889 137.632 14.1962 137.632 11.2826V6.24339C137.632 3.7835 136.79 1.10868 135.249 1.03703L134.743 1.01315V0.726562H140.04V1.01315L139.776 1.03703C138.523 1.13256 138.018 2.85209 138.018 6.24339V11.2826C138.018 14.7216 135.586 17.086 131.42 17.086Z" fill="black" fill-opacity="0.5"/>
</g>
<defs>
<clipPath id="clip0_1040_37352">
<rect width="139.495" height="17.2941" fill="white" transform="translate(0.546875 0.353027)"/>
</clipPath>
</defs>
</svg>
