<svg width="625" height="650" viewBox="0 0 625 650" fill="none" xmlns="http://www.w3.org/2000/svg">
<g filter="url(#filter0_d_1040_37524)">
<circle cx="440.5" cy="258.5" r="114.5" fill="white"/>
</g>
<g clip-path="url(#clip0_1040_37524)">
<path d="M444.547 249.05C444.547 250.491 443.386 251.653 441.944 251.653C440.503 251.653 439.342 250.491 439.342 249.05C439.342 247.609 440.463 246.447 441.944 246.447C443.426 246.487 444.547 247.649 444.547 249.05ZM433.816 254.295C433.816 254.536 433.816 254.936 433.816 254.936C433.816 254.936 432.575 253.334 429.932 253.334C425.568 253.334 422.165 256.658 422.165 261.262C422.165 265.827 425.528 269.19 429.932 269.19C432.615 269.19 433.816 267.549 433.816 267.549V268.229C433.816 268.55 434.056 268.79 434.377 268.79H437.62V253.735C437.62 253.735 434.657 253.735 434.377 253.735C434.056 253.735 433.816 254.015 433.816 254.295ZM433.816 263.945C433.216 264.826 432.014 265.587 430.573 265.587C428.01 265.587 426.048 263.985 426.048 261.262C426.048 258.54 428.01 256.938 430.573 256.938C431.974 256.938 433.256 257.739 433.816 258.58V263.945ZM440.022 253.735H443.866V268.79H440.022V253.735ZM497.44 253.334C494.797 253.334 493.556 254.936 493.556 254.936V246.487H489.712V268.79C489.712 268.79 492.675 268.79 492.955 268.79C493.276 268.79 493.516 268.51 493.516 268.229V267.549C493.516 267.549 494.757 269.19 497.4 269.19C501.764 269.19 505.168 265.827 505.168 261.262C505.168 256.698 501.764 253.334 497.44 253.334ZM496.799 265.547C495.318 265.547 494.157 264.786 493.556 263.905V258.54C494.157 257.739 495.438 256.898 496.799 256.898C499.362 256.898 501.324 258.5 501.324 261.222C501.324 263.945 499.362 265.547 496.799 265.547ZM487.71 259.861V268.83H483.866V260.301C483.866 257.819 483.065 256.818 480.903 256.818C479.742 256.818 478.541 257.418 477.78 258.299V268.79H473.936V253.735H476.979C477.3 253.735 477.54 254.015 477.54 254.295V254.936C478.661 253.775 480.143 253.334 481.624 253.334C483.306 253.334 484.707 253.815 485.828 254.776C487.19 255.897 487.71 257.338 487.71 259.861ZM464.607 253.334C461.964 253.334 460.723 254.936 460.723 254.936V246.487H456.879V268.79C456.879 268.79 459.842 268.79 460.123 268.79C460.443 268.79 460.683 268.51 460.683 268.229V267.549C460.683 267.549 461.924 269.19 464.567 269.19C468.931 269.19 472.335 265.827 472.335 261.262C472.375 256.698 468.971 253.334 464.607 253.334ZM463.966 265.547C462.485 265.547 461.324 264.786 460.723 263.905V258.54C461.324 257.739 462.605 256.898 463.966 256.898C466.529 256.898 468.491 258.5 468.491 261.222C468.491 263.945 466.529 265.547 463.966 265.547ZM453.556 253.334C454.717 253.334 455.318 253.535 455.318 253.535V257.098C455.318 257.098 452.115 256.017 450.113 258.299V268.83H446.269V253.735C446.269 253.735 449.232 253.735 449.512 253.735C449.832 253.735 450.072 254.015 450.072 254.295V254.936C450.793 254.095 452.355 253.334 453.556 253.334ZM413.636 267.428C413.436 266.948 413.236 266.427 413.035 265.987C412.715 265.266 412.395 264.586 412.115 263.945L412.074 263.905C409.312 257.899 406.349 251.813 403.226 245.807L403.106 245.567C402.785 244.966 402.465 244.325 402.145 243.685C401.744 242.964 401.344 242.203 400.703 241.482C399.422 239.881 397.58 239 395.618 239C393.616 239 391.814 239.881 390.493 241.402C389.892 242.123 389.452 242.884 389.051 243.605C388.731 244.245 388.411 244.886 388.091 245.486L387.97 245.727C384.887 251.733 381.884 257.819 379.122 263.825L379.082 263.905C378.801 264.546 378.481 265.226 378.161 265.947C377.96 266.387 377.76 266.868 377.56 267.388C377.039 268.87 376.879 270.271 377.08 271.713C377.52 274.716 379.522 277.238 382.285 278.359C383.326 278.8 384.407 279 385.528 279C385.848 279 386.249 278.96 386.569 278.92C387.89 278.76 389.252 278.319 390.573 277.559C392.215 276.638 393.776 275.316 395.538 273.394C397.3 275.316 398.901 276.638 400.503 277.559C401.824 278.319 403.186 278.76 404.507 278.92C404.827 278.96 405.228 279 405.548 279C406.669 279 407.79 278.8 408.791 278.359C411.594 277.238 413.556 274.676 413.996 271.713C414.317 270.311 414.157 268.91 413.636 267.428ZM395.578 269.511C393.416 266.788 392.014 264.225 391.534 262.063C391.334 261.142 391.294 260.341 391.414 259.621C391.494 258.98 391.734 258.419 392.054 257.939C392.815 256.858 394.097 256.177 395.578 256.177C397.059 256.177 398.381 256.818 399.102 257.939C399.422 258.419 399.662 258.98 399.742 259.621C399.862 260.341 399.822 261.182 399.622 262.063C399.142 264.185 397.74 266.748 395.578 269.511ZM411.554 271.392C411.274 273.474 409.872 275.276 407.91 276.077C406.949 276.477 405.908 276.598 404.867 276.477C403.866 276.357 402.865 276.037 401.824 275.436C400.383 274.636 398.941 273.394 397.26 271.553C399.902 268.309 401.504 265.346 402.105 262.704C402.385 261.462 402.425 260.341 402.305 259.3C402.145 258.299 401.784 257.378 401.224 256.578C399.982 254.776 397.9 253.735 395.578 253.735C393.256 253.735 391.174 254.816 389.932 256.578C389.372 257.378 389.011 258.299 388.851 259.3C388.691 260.341 388.731 261.503 389.051 262.704C389.652 265.346 391.294 268.349 393.896 271.593C392.255 273.434 390.773 274.676 389.332 275.476C388.291 276.077 387.29 276.397 386.289 276.518C385.208 276.638 384.167 276.477 383.246 276.117C381.284 275.316 379.882 273.515 379.602 271.432C379.482 270.431 379.562 269.43 379.962 268.309C380.083 267.909 380.283 267.509 380.483 267.028C380.763 266.387 381.084 265.707 381.404 265.026L381.444 264.946C384.207 258.98 387.17 252.894 390.253 246.968L390.373 246.728C390.693 246.127 391.013 245.486 391.334 244.886C391.654 244.245 392.014 243.645 392.455 243.124C393.296 242.163 394.417 241.643 395.658 241.643C396.899 241.643 398.02 242.163 398.861 243.124C399.302 243.645 399.662 244.245 399.982 244.886C400.303 245.486 400.623 246.127 400.943 246.728L401.063 246.968C404.107 252.934 407.069 259.02 409.832 264.986V265.026C410.153 265.667 410.433 266.387 410.753 267.028C410.953 267.509 411.154 267.909 411.274 268.309C411.594 269.35 411.714 270.351 411.554 271.392Z" fill="#FF5A5F"/>
</g>
<g filter="url(#filter1_d_1040_37524)">
<circle cx="307.5" cy="165.5" r="114.5" fill="white"/>
</g>
<path d="M255.635 148H241V183L255.635 148Z" fill="#FA0C00"/>
<path d="M265.932 148H280.548V183L265.932 148Z" fill="#FA0C00"/>
<path d="M260.784 160.9L270.099 183H263.988L261.204 175.964H254.387L260.784 160.9Z" fill="#FA0C00"/>
<path d="M304.424 170.258L306.149 175.206C306.206 175.33 306.292 175.387 306.445 175.387H309.763C309.944 175.387 309.972 175.301 309.944 175.12L303.089 156.08C303.06 155.928 303.032 155.899 302.879 155.899H298.76C298.646 155.899 298.579 155.985 298.579 156.109C298.522 157.11 298.436 157.415 298.312 157.711L292.201 175.092C292.172 175.301 292.239 175.387 292.41 175.387H295.376C295.557 175.387 295.643 175.33 295.709 175.149L297.34 170.258H304.424ZM298.284 167.026C299.18 164.318 300.362 160.848 300.839 158.864H300.867C301.458 160.943 302.85 165.062 303.48 167.026H298.284Z" fill="#FA0C00"/>
<path d="M318.757 175.683C320.54 175.683 322.437 175.359 324.363 174.529C324.516 174.472 324.544 174.405 324.544 174.262C324.487 173.728 324.421 172.956 324.421 172.365V154.441C324.421 154.326 324.421 154.269 324.278 154.269H321.045C320.921 154.269 320.864 154.326 320.864 154.479V160.552C320.359 160.495 320.006 160.466 319.587 160.466C314.371 160.466 311.168 163.908 311.168 168.208C311.168 173.194 314.457 175.683 318.757 175.683ZM320.864 172.365C320.33 172.536 319.739 172.603 319.139 172.603C316.774 172.603 314.839 171.268 314.839 168.027C314.839 165.157 316.831 163.46 319.472 163.46C320.006 163.46 320.473 163.517 320.864 163.67V172.365Z" fill="#FA0C00"/>
<path d="M334.855 160.466C330.403 160.466 327.647 163.879 327.647 168.094C327.647 171.86 329.84 175.683 334.789 175.683C338.974 175.683 341.911 172.603 341.911 167.998C341.911 163.937 339.422 160.466 334.855 160.466ZM334.674 163.46C337.191 163.46 338.259 165.624 338.259 168.094C338.259 171.144 336.686 172.66 334.855 172.66C332.596 172.66 331.261 170.763 331.261 168.027C331.261 165.214 332.682 163.46 334.674 163.46Z" fill="#FA0C00"/>
<path d="M345.252 154.269C345.128 154.269 345.042 154.326 345.042 154.479V174.767C345.042 174.853 345.128 175.006 345.252 175.034C346.672 175.473 348.16 175.683 349.695 175.683C354.09 175.683 358.361 172.956 358.361 167.464C358.361 163.488 355.634 160.466 351.363 160.466C350.381 160.466 349.466 160.619 348.665 160.886L348.627 154.507C348.627 154.298 348.57 154.269 348.36 154.269H345.252ZM354.71 167.827C354.71 171.116 352.46 172.66 350.028 172.66C349.523 172.66 349.075 172.632 348.665 172.508V163.851C349.132 163.67 349.695 163.517 350.734 163.517C353.079 163.517 354.71 165.004 354.71 167.827Z" fill="#FA0C00"/>
<path d="M370.423 168.894C371.872 168.894 373.064 168.866 373.474 168.77C373.627 168.742 373.684 168.685 373.713 168.561C373.798 168.237 373.836 167.56 373.836 166.73C373.836 163.908 372.139 160.466 367.754 160.466C363.273 160.466 360.784 164.118 360.784 168.237C360.784 171.888 362.71 175.683 368.106 175.683C370.128 175.683 371.434 175.359 372.559 174.825C372.673 174.767 372.73 174.672 372.73 174.5V172.031C372.73 171.888 372.645 171.86 372.559 171.917C371.434 172.393 370.213 172.632 368.879 172.632C365.856 172.632 364.483 170.963 364.398 168.894H370.423ZM364.398 166.339C364.636 164.89 365.551 163.317 367.601 163.317C369.861 163.317 370.452 165.214 370.452 166.072C370.452 166.101 370.452 166.225 370.452 166.311C370.328 166.339 369.947 166.339 368.821 166.339H364.398Z" fill="#FA0C00"/>
<g filter="url(#filter2_d_1040_37524)">
<circle cx="164.5" cy="258.5" r="114.5" fill="white"/>
</g>
<path d="M128.902 252.613C124.6 252.613 121.238 255.855 121.238 260.195C121.238 264.535 124.515 267.749 128.902 267.749C133.289 267.749 136.623 264.479 136.623 260.167C136.623 255.882 133.346 252.613 128.902 252.613ZM128.931 264.621C126.481 264.621 124.686 262.732 124.686 260.196C124.686 257.63 126.452 255.743 128.902 255.743C131.381 255.743 133.176 257.659 133.176 260.196C133.176 262.732 131.381 264.621 128.931 264.621ZM137.563 255.911H139.7V267.468H143.118V252.895H137.563V255.911ZM112.635 255.742C114.43 255.742 115.855 256.841 116.395 258.476H120.014C119.358 254.981 116.452 252.613 112.664 252.613C108.362 252.613 105 255.855 105 260.196C105 264.537 108.277 267.75 112.664 267.75C116.367 267.75 119.33 265.382 119.986 261.858H116.395C115.883 263.493 114.458 264.621 112.663 264.621C110.184 264.621 108.447 262.732 108.447 260.196C108.448 257.63 110.157 255.742 112.635 255.742ZM202.518 258.786L200.011 258.42C198.815 258.252 197.96 257.857 197.96 256.926C197.96 255.911 199.072 255.404 200.581 255.404C202.234 255.404 203.288 256.109 203.516 257.264H206.821C206.45 254.333 204.171 252.614 200.667 252.614C197.048 252.614 194.656 254.446 194.656 257.039C194.656 259.519 196.223 260.958 199.384 261.408L201.891 261.774C203.117 261.943 203.801 262.423 203.801 263.325C203.801 264.48 202.604 264.959 200.952 264.959C198.929 264.959 197.789 264.142 197.618 262.902H194.257C194.571 265.749 196.821 267.75 200.923 267.75C204.656 267.75 207.133 266.059 207.133 263.155C207.133 260.562 205.339 259.209 202.518 258.786ZM141.409 246.891C140.156 246.891 139.215 247.793 139.215 249.033C139.215 250.273 140.155 251.174 141.409 251.174C142.662 251.174 143.603 250.273 143.603 249.033C143.603 247.793 142.662 246.891 141.409 246.891ZM191.579 257.884C191.579 254.728 189.642 252.614 185.539 252.614C181.665 252.614 179.5 254.559 179.072 257.547H182.462C182.633 256.391 183.545 255.433 185.482 255.433C187.221 255.433 188.075 256.194 188.075 257.125C188.075 258.337 186.508 258.646 184.571 258.844C181.95 259.125 178.702 260.027 178.702 263.41C178.702 266.032 180.668 267.722 183.802 267.722C186.252 267.722 187.79 266.707 188.56 265.1C188.674 266.538 189.757 267.468 191.267 267.468H193.261V264.453H191.58V257.884H191.579ZM188.217 261.549C188.217 263.494 186.508 264.932 184.428 264.932C183.145 264.932 182.063 264.396 182.063 263.269C182.063 261.832 183.801 261.437 185.396 261.268C186.935 261.127 187.789 260.789 188.217 260.14V261.549ZM170.07 252.613C168.16 252.613 166.565 253.402 165.426 254.727V246.75H162.007V267.468H165.368V265.552C166.508 266.933 168.132 267.75 170.07 267.75C174.172 267.75 177.278 264.537 177.278 260.196C177.278 255.855 174.115 252.613 170.07 252.613ZM169.557 264.621C167.107 264.621 165.312 262.732 165.312 260.196C165.312 257.659 167.135 255.743 169.585 255.743C172.064 255.743 173.801 257.632 173.801 260.196C173.801 262.732 172.007 264.621 169.557 264.621ZM153.83 252.613C151.608 252.613 150.155 253.515 149.3 254.783V252.895H145.909V267.467H149.328V259.547C149.328 257.32 150.752 255.742 152.86 255.742C154.827 255.742 156.051 257.122 156.051 259.124V267.468H159.47V258.871C159.471 255.206 157.563 252.613 153.83 252.613ZM223.43 259.717C223.43 255.545 220.353 252.614 216.222 252.614C211.835 252.614 208.615 255.884 208.615 260.196C208.615 264.734 212.062 267.75 216.279 267.75C219.84 267.75 222.632 265.664 223.344 262.705H219.782C219.269 264.001 218.016 264.734 216.335 264.734C214.14 264.734 212.488 263.381 212.118 261.013H223.429V259.717H223.43ZM212.318 258.589C212.86 256.559 214.398 255.573 216.165 255.573C218.102 255.573 219.583 256.672 219.925 258.589H212.318Z" fill="#0052FF"/>
<g filter="url(#filter3_d_1040_37524)">
<circle cx="164.5" cy="404.5" r="114.5" fill="white"/>
</g>
<path d="M246.858 402.834V399.952H243.279V395.472L243.159 395.509L239.798 396.538L239.731 396.558V399.952H234.426V398.061C234.426 397.181 234.623 396.507 235.011 396.058C235.396 395.614 235.948 395.388 236.65 395.388C237.156 395.388 237.679 395.507 238.206 395.742L238.338 395.801V392.766L238.276 392.743C237.784 392.566 237.116 392.478 236.288 392.478C235.244 392.478 234.296 392.705 233.469 393.155C232.641 393.606 231.99 394.249 231.534 395.067C231.08 395.885 230.849 396.829 230.849 397.873V399.952H228.357V402.834H230.849V414.974H234.426V402.834H239.731V410.549C239.731 413.726 241.23 415.336 244.186 415.336C244.671 415.336 245.183 415.279 245.704 415.168C246.236 415.053 246.598 414.939 246.811 414.817L246.858 414.789V411.881L246.712 411.977C246.518 412.106 246.276 412.212 245.993 412.291C245.708 412.371 245.471 412.411 245.286 412.411C244.594 412.411 244.082 412.224 243.764 411.856C243.442 411.484 243.279 410.835 243.279 409.926V402.834H246.858ZM220.369 412.411C219.071 412.411 218.047 411.981 217.326 411.133C216.6 410.28 216.232 409.065 216.232 407.521C216.232 405.929 216.6 404.682 217.326 403.815C218.048 402.953 219.062 402.516 220.34 402.516C221.58 402.516 222.568 402.933 223.275 403.758C223.986 404.586 224.346 405.823 224.346 407.434C224.346 409.066 224.007 410.319 223.338 411.157C222.674 411.989 221.675 412.411 220.369 412.411ZM220.528 399.59C218.051 399.59 216.084 400.316 214.681 401.748C213.279 403.179 212.568 405.16 212.568 407.637C212.568 409.989 213.262 411.88 214.631 413.259C215.999 414.637 217.862 415.336 220.166 415.336C222.567 415.336 224.495 414.6 225.897 413.149C227.299 411.699 228.01 409.736 228.01 407.318C228.01 404.929 227.343 403.023 226.028 401.654C224.712 400.285 222.862 399.59 220.528 399.59ZM206.801 399.59C205.116 399.59 203.722 400.021 202.658 400.871C201.586 401.726 201.043 402.847 201.043 404.204C201.043 404.909 201.16 405.535 201.391 406.067C201.623 406.6 201.983 407.069 202.46 407.463C202.934 407.854 203.665 408.263 204.634 408.679C205.449 409.015 206.057 409.298 206.443 409.522C206.82 409.741 207.088 409.961 207.239 410.175C207.386 410.385 207.46 410.672 207.46 411.027C207.46 412.036 206.704 412.527 205.149 412.527C204.572 412.527 203.915 412.407 203.194 412.169C202.478 411.935 201.803 411.593 201.191 411.154L201.043 411.047V414.491L201.097 414.517C201.603 414.75 202.241 414.947 202.994 415.102C203.744 415.257 204.426 415.336 205.019 415.336C206.847 415.336 208.32 414.903 209.394 414.049C210.475 413.188 211.023 412.04 211.023 410.637C211.023 409.624 210.728 408.756 210.147 408.055C209.569 407.361 208.567 406.723 207.169 406.16C206.055 405.713 205.342 405.341 205.048 405.057C204.764 404.781 204.62 404.392 204.62 403.9C204.62 403.463 204.798 403.113 205.163 402.829C205.531 402.544 206.043 402.4 206.685 402.4C207.281 402.4 207.891 402.494 208.497 402.678C209.103 402.863 209.636 403.11 210.08 403.412L210.226 403.512V400.245L210.17 400.221C209.76 400.045 209.219 399.895 208.563 399.773C207.909 399.651 207.317 399.59 206.801 399.59ZM191.718 412.411C190.42 412.411 189.396 411.981 188.675 411.133C187.949 410.28 187.581 409.066 187.581 407.521C187.581 405.929 187.949 404.682 188.675 403.815C189.397 402.953 190.41 402.516 191.689 402.516C192.929 402.516 193.916 402.933 194.624 403.758C195.335 404.586 195.695 405.823 195.695 407.434C195.695 409.066 195.356 410.319 194.687 411.157C194.023 411.989 193.024 412.411 191.718 412.411ZM191.877 399.59C189.4 399.59 187.432 400.316 186.03 401.748C184.628 403.179 183.917 405.16 183.917 407.637C183.917 409.99 184.611 411.88 185.98 413.259C187.348 414.637 189.211 415.336 191.515 415.336C193.916 415.336 195.844 414.6 197.247 413.149C198.648 411.699 199.359 409.736 199.359 407.318C199.359 404.929 198.692 403.023 197.377 401.654C196.061 400.285 194.21 399.59 191.877 399.59ZM178.487 402.554V399.952H174.954V414.974H178.487V407.29C178.487 405.983 178.783 404.91 179.368 404.099C179.945 403.298 180.714 402.892 181.653 402.892C181.971 402.892 182.329 402.944 182.716 403.048C183.099 403.151 183.376 403.263 183.54 403.381L183.688 403.489V399.926L183.631 399.902C183.302 399.762 182.836 399.692 182.247 399.692C181.359 399.692 180.565 399.977 179.884 400.539C179.287 401.032 178.855 401.709 178.525 402.554H178.487ZM168.626 399.59C167.005 399.59 165.559 399.938 164.329 400.623C163.097 401.31 162.143 402.29 161.495 403.537C160.849 404.781 160.522 406.234 160.522 407.854C160.522 409.274 160.839 410.576 161.468 411.724C162.096 412.874 162.986 413.773 164.112 414.397C165.236 415.02 166.536 415.336 167.975 415.336C169.654 415.336 171.088 415.001 172.237 414.338L172.283 414.312V411.075L172.135 411.183C171.614 411.562 171.032 411.865 170.406 412.083C169.782 412.301 169.212 412.411 168.713 412.411C167.327 412.411 166.214 411.977 165.406 411.122C164.596 410.266 164.185 409.063 164.185 407.55C164.185 406.027 164.614 404.794 165.457 403.883C166.299 402.976 167.414 402.516 168.771 402.516C169.933 402.516 171.065 402.909 172.135 403.686L172.283 403.793V400.382L172.236 400.355C171.833 400.13 171.283 399.943 170.601 399.802C169.922 399.661 169.257 399.59 168.626 399.59ZM158.088 399.952H154.554V414.974H158.088V399.952ZM156.357 393.553C155.776 393.553 155.269 393.751 154.852 394.143C154.433 394.537 154.221 395.032 154.221 395.617C154.221 396.192 154.431 396.678 154.845 397.061C155.257 397.443 155.766 397.637 156.358 397.637C156.949 397.637 157.46 397.443 157.876 397.062C158.296 396.678 158.508 396.192 158.508 395.617C158.508 395.053 158.301 394.562 157.894 394.159C157.486 393.757 156.969 393.553 156.357 393.553ZM147.541 398.844V414.974H151.147V394.013H146.156L139.812 409.582L133.656 394.013H128.462V414.973H131.851V398.842H131.967L138.468 414.974H141.025L147.425 398.844H147.541Z" fill="#706D6E"/>
<path d="M99.6225 403.631H83V387.009H99.6225V403.631Z" fill="#F1511B"/>
<path d="M117.976 403.631H101.354V387.009H117.976V403.631Z" fill="#80CC28"/>
<path d="M99.622 421.991H83V405.369H99.622V421.991Z" fill="#00ADEF"/>
<path d="M117.976 421.991H101.354V405.369H117.976V421.991Z" fill="#FBBC09"/>
<g filter="url(#filter4_d_1040_37524)">
<circle cx="307.5" cy="466.5" r="114.5" fill="white"/>
</g>
<path d="M271.151 454.884C271.125 454.707 270.974 454.606 270.847 454.606C270.721 454.606 268.218 454.555 268.218 454.555C268.218 454.555 266.12 452.533 265.918 452.305C265.715 452.103 265.311 452.154 265.159 452.204C265.159 452.204 264.755 452.33 264.097 452.533C263.996 452.179 263.819 451.749 263.592 451.294C262.859 449.878 261.746 449.12 260.432 449.12C260.331 449.12 260.255 449.12 260.154 449.145C260.103 449.095 260.078 449.044 260.027 449.019C259.446 448.412 258.713 448.109 257.828 448.134C256.134 448.185 254.441 449.423 253.05 451.597C252.09 453.139 251.356 455.061 251.129 456.552C249.182 457.159 247.817 457.589 247.767 457.589C246.781 457.892 246.756 457.917 246.629 458.853C246.579 459.561 244 479.506 244 479.506L265.64 483.248L275.018 480.922C274.993 480.922 271.176 455.061 271.151 454.884ZM263.01 452.887C262.505 453.038 261.949 453.215 261.342 453.418C261.342 452.558 261.216 451.345 260.836 450.333C262.126 450.536 262.758 452.002 263.01 452.887ZM260.204 453.746C259.067 454.1 257.828 454.479 256.589 454.858C256.943 453.519 257.601 452.204 258.41 451.319C258.713 450.991 259.143 450.637 259.623 450.434C260.129 451.42 260.23 452.811 260.204 453.746ZM257.879 449.272C258.283 449.272 258.612 449.347 258.89 449.55C258.435 449.777 257.98 450.131 257.575 450.586C256.488 451.749 255.654 453.544 255.325 455.288C254.289 455.617 253.278 455.92 252.368 456.198C252.974 453.443 255.275 449.347 257.879 449.272Z" fill="#95BF47"/>
<path d="M270.847 454.606C270.721 454.606 268.218 454.555 268.218 454.555C268.218 454.555 266.12 452.533 265.918 452.305C265.842 452.23 265.741 452.179 265.64 452.179V483.248L275.018 480.922C275.018 480.922 271.201 455.061 271.176 454.884C271.125 454.707 270.974 454.606 270.847 454.606Z" fill="#5E8E3E"/>
<path d="M260.433 459.434L259.346 463.504C259.346 463.504 258.132 462.948 256.691 463.049C254.568 463.175 254.568 464.515 254.568 464.844C254.694 466.664 259.472 467.068 259.75 471.341C259.952 474.703 257.981 477.003 255.099 477.18C251.661 477.357 249.765 475.335 249.765 475.335L250.498 472.226C250.498 472.226 252.419 473.667 253.936 473.565C254.922 473.515 255.301 472.681 255.25 472.124C255.099 469.748 251.206 469.9 250.953 465.981C250.751 462.695 252.899 459.383 257.652 459.08C259.497 458.954 260.433 459.434 260.433 459.434Z" fill="white"/>
<path d="M287.709 468.105C286.622 467.524 286.066 467.018 286.066 466.336C286.066 465.476 286.85 464.92 288.063 464.92C289.479 464.92 290.743 465.502 290.743 465.502L291.729 462.468C291.729 462.468 290.819 461.76 288.139 461.76C284.398 461.76 281.794 463.909 281.794 466.917C281.794 468.636 283.007 469.925 284.625 470.861C285.94 471.594 286.395 472.125 286.395 472.909C286.395 473.717 285.737 474.375 284.524 474.375C282.729 474.375 281.01 473.439 281.01 473.439L279.948 476.473C279.948 476.473 281.516 477.535 284.17 477.535C288.013 477.535 290.793 475.639 290.793 472.226C290.768 470.381 289.378 469.066 287.709 468.105Z" fill="black"/>
<path d="M303.029 461.71C301.133 461.71 299.641 462.62 298.504 463.985L298.453 463.96L300.096 455.364H295.824L291.653 477.257H295.925L297.341 469.774C297.897 466.943 299.363 465.198 300.728 465.198C301.689 465.198 302.068 465.856 302.068 466.791C302.068 467.372 302.018 468.106 301.891 468.687L300.273 477.257H304.546L306.214 468.409C306.391 467.474 306.517 466.361 306.517 465.603C306.543 463.176 305.279 461.71 303.029 461.71Z" fill="black"/>
<path d="M316.225 461.709C311.067 461.709 307.655 466.361 307.655 471.543C307.655 474.855 309.702 477.535 313.545 477.535C318.601 477.535 322.014 473.009 322.014 467.701C322.039 464.642 320.244 461.709 316.225 461.709ZM314.126 474.273C312.66 474.273 312.053 473.035 312.053 471.467C312.053 469.015 313.317 465.021 315.643 465.021C317.16 465.021 317.666 466.336 317.666 467.6C317.666 470.229 316.376 474.273 314.126 474.273Z" fill="black"/>
<path d="M332.986 461.709C330.104 461.709 328.461 464.263 328.461 464.263H328.41L328.663 461.962H324.871C324.694 463.504 324.34 465.881 324.011 467.65L321.028 483.324H325.301L326.489 476.978H326.59C326.59 476.978 327.475 477.535 329.093 477.535C334.123 477.535 337.41 472.377 337.41 467.17C337.41 464.288 336.12 461.709 332.986 461.709ZM328.89 474.324C327.778 474.324 327.121 473.692 327.121 473.692L327.829 469.698C328.334 467.018 329.725 465.249 331.216 465.249C332.531 465.249 332.935 466.462 332.935 467.6C332.935 470.38 331.292 474.324 328.89 474.324Z" fill="black"/>
<path d="M343.527 455.567C342.162 455.567 341.075 456.654 341.075 458.044C341.075 459.308 341.883 460.193 343.097 460.193H343.147C344.487 460.193 345.625 459.283 345.65 457.715C345.65 456.477 344.816 455.567 343.527 455.567Z" fill="black"/>
<path d="M337.536 477.231H341.808L344.715 462.063H340.418L337.536 477.231Z" fill="black"/>
<path d="M355.61 462.038H352.627L352.779 461.331C353.032 459.864 353.891 458.575 355.332 458.575C356.091 458.575 356.698 458.803 356.698 458.803L357.532 455.44C357.532 455.44 356.799 455.061 355.206 455.061C353.689 455.061 352.172 455.491 351.01 456.477C349.543 457.716 348.861 459.51 348.532 461.331L348.406 462.038H346.409L345.777 465.274H347.774L345.499 477.257H349.771L352.046 465.274H355.004L355.61 462.038Z" fill="black"/>
<path d="M365.924 462.063C365.924 462.063 363.245 468.813 362.057 472.504H362.006C361.93 471.316 360.944 462.063 360.944 462.063H356.444L359.023 475.993C359.074 476.296 359.048 476.498 358.922 476.7C358.416 477.661 357.582 478.596 356.596 479.279C355.787 479.86 354.877 480.24 354.169 480.492L355.357 484.133C356.217 483.956 358.037 483.223 359.554 481.807C361.5 479.987 363.321 477.156 365.166 473.313L370.399 462.063H365.924Z" fill="black"/>
<g filter="url(#filter5_d_1040_37524)">
<circle cx="440.5" cy="404.5" r="114.5" fill="white"/>
</g>
<path fill-rule="evenodd" clip-rule="evenodd" d="M453.935 418.807C447.571 423.497 438.348 426 430.406 426C419.271 426 409.247 421.881 401.663 415.032C401.067 414.493 401.601 413.759 402.316 414.178C410.501 418.94 420.62 421.805 431.074 421.805C438.124 421.805 445.879 420.347 453.01 417.32C454.087 416.862 454.988 418.025 453.935 418.807Z" fill="#FF9900"/>
<path fill-rule="evenodd" clip-rule="evenodd" d="M456.581 415.78C455.77 414.741 451.204 415.289 449.154 415.532C448.53 415.608 448.434 415.065 448.997 414.674C452.634 412.114 458.602 412.853 459.298 413.711C459.993 414.574 459.116 420.556 455.699 423.412C455.174 423.85 454.674 423.617 454.907 423.035C455.675 421.119 457.396 416.824 456.581 415.78Z" fill="#FF9900"/>
<path fill-rule="evenodd" clip-rule="evenodd" d="M449.297 396.604V394.115C449.297 393.739 449.583 393.486 449.927 393.486H461.066C461.424 393.486 461.71 393.744 461.71 394.115V396.246C461.705 396.604 461.405 397.071 460.871 397.81L455.098 406.051C457.243 405.999 459.508 406.318 461.452 407.415C461.891 407.662 462.01 408.025 462.043 408.382V411.037C462.043 411.4 461.643 411.824 461.224 411.604C457.796 409.807 453.244 409.612 449.455 411.624C449.068 411.833 448.663 411.414 448.663 411.052V408.53C448.663 408.125 448.668 407.434 449.073 406.819L455.761 397.228H449.941C449.583 397.228 449.297 396.975 449.297 396.604Z" fill="black"/>
<path fill-rule="evenodd" clip-rule="evenodd" d="M408.661 412.129H405.272C404.948 412.105 404.69 411.862 404.667 411.552V394.158C404.667 393.81 404.957 393.534 405.32 393.534H408.48C408.809 393.548 409.071 393.801 409.095 394.115V396.389H409.157C409.981 394.192 411.531 393.167 413.618 393.167C415.74 393.167 417.065 394.192 418.018 396.389C418.838 394.192 420.702 393.167 422.699 393.167C424.119 393.167 425.673 393.753 426.622 395.069C427.695 396.532 427.475 398.658 427.475 400.522L427.47 411.5C427.47 411.848 427.18 412.129 426.817 412.129H423.433C423.095 412.105 422.823 411.833 422.823 411.5V402.281C422.823 401.547 422.89 399.716 422.728 399.02C422.475 397.853 421.717 397.524 420.735 397.524C419.915 397.524 419.057 398.072 418.709 398.949C418.361 399.826 418.395 401.294 418.395 402.281V411.5C418.395 411.848 418.104 412.129 417.742 412.129H414.357C414.014 412.105 413.747 411.833 413.747 411.5L413.742 402.281C413.742 400.341 414.062 397.486 411.655 397.486C409.219 397.486 409.314 400.269 409.314 402.281V411.5C409.314 411.848 409.023 412.129 408.661 412.129Z" fill="black"/>
<path fill-rule="evenodd" clip-rule="evenodd" d="M471.3 393.167C476.329 393.167 479.051 397.486 479.051 402.977C479.051 408.282 476.043 412.491 471.3 412.491C466.362 412.491 463.674 408.172 463.674 402.791C463.674 397.376 466.395 393.167 471.3 393.167ZM471.329 396.718C468.831 396.718 468.674 400.122 468.674 402.243C468.674 404.369 468.641 408.907 471.3 408.907C473.927 408.907 474.051 405.246 474.051 403.015C474.051 401.547 473.989 399.793 473.545 398.401C473.164 397.19 472.406 396.718 471.329 396.718Z" fill="black"/>
<path fill-rule="evenodd" clip-rule="evenodd" d="M485.572 412.129H482.197C481.859 412.105 481.587 411.833 481.587 411.5L481.582 394.101C481.611 393.782 481.892 393.534 482.235 393.534H485.377C485.672 393.548 485.915 393.748 485.982 394.02V396.68H486.044C486.992 394.301 488.322 393.167 490.663 393.167C492.183 393.167 493.666 393.715 494.619 395.217C495.506 396.608 495.506 398.949 495.506 400.632V411.581C495.468 411.886 495.186 412.129 494.853 412.129H491.454C491.144 412.105 490.887 411.876 490.854 411.581V402.133C490.854 400.231 491.073 397.447 488.732 397.447C487.908 397.447 487.15 398 486.773 398.839C486.297 399.902 486.235 400.96 486.235 402.133V411.5C486.23 411.848 485.934 412.129 485.572 412.129Z" fill="black"/>
<path fill-rule="evenodd" clip-rule="evenodd" d="M440.417 403.82C440.417 405.141 440.45 406.242 439.783 407.415C439.244 408.368 438.386 408.954 437.438 408.954C436.136 408.954 435.374 407.963 435.374 406.499C435.374 403.611 437.962 403.086 440.417 403.086V403.82ZM443.835 412.081C443.611 412.281 443.286 412.296 443.034 412.162C441.909 411.228 441.704 410.794 441.089 409.903C439.23 411.8 437.91 412.367 435.502 412.367C432.647 412.367 430.431 410.608 430.431 407.086C430.431 404.335 431.918 402.462 434.044 401.547C435.884 400.736 438.453 400.593 440.417 400.369V399.931C440.417 399.125 440.479 398.172 440.002 397.476C439.592 396.852 438.801 396.594 438.1 396.594C436.809 396.594 435.66 397.257 435.379 398.629C435.321 398.935 435.097 399.235 434.787 399.249L431.503 398.896C431.227 398.834 430.917 398.61 430.998 398.186C431.751 394.201 435.355 393 438.577 393C440.226 393 442.381 393.439 443.682 394.687C445.331 396.227 445.174 398.282 445.174 400.517V405.799C445.174 407.386 445.832 408.082 446.452 408.94C446.666 409.245 446.714 409.612 446.437 409.841C445.746 410.418 444.516 411.49 443.839 412.091L443.835 412.081Z" fill="black"/>
<path fill-rule="evenodd" clip-rule="evenodd" d="M395.986 403.82C395.986 405.141 396.02 406.242 395.352 407.415C394.814 408.368 393.96 408.954 393.007 408.954C391.706 408.954 390.948 407.963 390.948 406.499C390.948 403.611 393.536 403.086 395.986 403.086V403.82ZM399.404 412.081C399.18 412.281 398.856 412.296 398.603 412.162C397.478 411.228 397.278 410.794 396.658 409.903C394.799 411.8 393.484 412.367 391.072 412.367C388.221 412.367 386 410.608 386 407.086C386 404.335 387.492 402.462 389.613 401.547C391.453 400.736 394.022 400.593 395.986 400.369V399.931C395.986 399.125 396.048 398.172 395.576 397.476C395.162 396.852 394.37 396.594 393.674 396.594C392.383 396.594 391.229 397.257 390.948 398.629C390.891 398.935 390.667 399.235 390.362 399.249L387.073 398.896C386.796 398.834 386.491 398.61 386.567 398.186C387.325 394.201 390.924 393 394.146 393C395.796 393 397.95 393.439 399.251 394.687C400.901 396.227 400.743 398.282 400.743 400.517V405.799C400.743 407.386 401.401 408.082 402.021 408.94C402.24 409.245 402.288 409.612 402.011 409.841C401.32 410.418 400.09 411.49 399.414 412.091L399.404 412.081Z" fill="black"/>
<defs>
<filter id="filter0_d_1040_37524" x="276" y="93" width="349" height="349" filterUnits="userSpaceOnUse" color-interpolation-filters="sRGB">
<feFlood flood-opacity="0" result="BackgroundImageFix"/>
<feColorMatrix in="SourceAlpha" type="matrix" values="0 0 0 0 0 0 0 0 0 0 0 0 0 0 0 0 0 0 127 0" result="hardAlpha"/>
<feOffset dx="10" dy="9"/>
<feGaussianBlur stdDeviation="30"/>
<feComposite in2="hardAlpha" operator="out"/>
<feColorMatrix type="matrix" values="0 0 0 0 0.154167 0 0 0 0 0.251 0 0 0 0 0.5 0 0 0 0.12 0"/>
<feBlend mode="normal" in2="BackgroundImageFix" result="effect1_dropShadow_1040_37524"/>
<feBlend mode="normal" in="SourceGraphic" in2="effect1_dropShadow_1040_37524" result="shape"/>
</filter>
<filter id="filter1_d_1040_37524" x="143" y="0" width="349" height="349" filterUnits="userSpaceOnUse" color-interpolation-filters="sRGB">
<feFlood flood-opacity="0" result="BackgroundImageFix"/>
<feColorMatrix in="SourceAlpha" type="matrix" values="0 0 0 0 0 0 0 0 0 0 0 0 0 0 0 0 0 0 127 0" result="hardAlpha"/>
<feOffset dx="10" dy="9"/>
<feGaussianBlur stdDeviation="30"/>
<feComposite in2="hardAlpha" operator="out"/>
<feColorMatrix type="matrix" values="0 0 0 0 0.154167 0 0 0 0 0.251 0 0 0 0 0.5 0 0 0 0.12 0"/>
<feBlend mode="normal" in2="BackgroundImageFix" result="effect1_dropShadow_1040_37524"/>
<feBlend mode="normal" in="SourceGraphic" in2="effect1_dropShadow_1040_37524" result="shape"/>
</filter>
<filter id="filter2_d_1040_37524" x="0" y="93" width="349" height="349" filterUnits="userSpaceOnUse" color-interpolation-filters="sRGB">
<feFlood flood-opacity="0" result="BackgroundImageFix"/>
<feColorMatrix in="SourceAlpha" type="matrix" values="0 0 0 0 0 0 0 0 0 0 0 0 0 0 0 0 0 0 127 0" result="hardAlpha"/>
<feOffset dx="10" dy="9"/>
<feGaussianBlur stdDeviation="30"/>
<feComposite in2="hardAlpha" operator="out"/>
<feColorMatrix type="matrix" values="0 0 0 0 0.154167 0 0 0 0 0.251 0 0 0 0 0.5 0 0 0 0.12 0"/>
<feBlend mode="normal" in2="BackgroundImageFix" result="effect1_dropShadow_1040_37524"/>
<feBlend mode="normal" in="SourceGraphic" in2="effect1_dropShadow_1040_37524" result="shape"/>
</filter>
<filter id="filter3_d_1040_37524" x="0" y="239" width="349" height="349" filterUnits="userSpaceOnUse" color-interpolation-filters="sRGB">
<feFlood flood-opacity="0" result="BackgroundImageFix"/>
<feColorMatrix in="SourceAlpha" type="matrix" values="0 0 0 0 0 0 0 0 0 0 0 0 0 0 0 0 0 0 127 0" result="hardAlpha"/>
<feOffset dx="10" dy="9"/>
<feGaussianBlur stdDeviation="30"/>
<feComposite in2="hardAlpha" operator="out"/>
<feColorMatrix type="matrix" values="0 0 0 0 0.154167 0 0 0 0 0.251 0 0 0 0 0.5 0 0 0 0.12 0"/>
<feBlend mode="normal" in2="BackgroundImageFix" result="effect1_dropShadow_1040_37524"/>
<feBlend mode="normal" in="SourceGraphic" in2="effect1_dropShadow_1040_37524" result="shape"/>
</filter>
<filter id="filter4_d_1040_37524" x="143" y="301" width="349" height="349" filterUnits="userSpaceOnUse" color-interpolation-filters="sRGB">
<feFlood flood-opacity="0" result="BackgroundImageFix"/>
<feColorMatrix in="SourceAlpha" type="matrix" values="0 0 0 0 0 0 0 0 0 0 0 0 0 0 0 0 0 0 127 0" result="hardAlpha"/>
<feOffset dx="10" dy="9"/>
<feGaussianBlur stdDeviation="30"/>
<feComposite in2="hardAlpha" operator="out"/>
<feColorMatrix type="matrix" values="0 0 0 0 0.154167 0 0 0 0 0.251 0 0 0 0 0.5 0 0 0 0.12 0"/>
<feBlend mode="normal" in2="BackgroundImageFix" result="effect1_dropShadow_1040_37524"/>
<feBlend mode="normal" in="SourceGraphic" in2="effect1_dropShadow_1040_37524" result="shape"/>
</filter>
<filter id="filter5_d_1040_37524" x="276" y="239" width="349" height="349" filterUnits="userSpaceOnUse" color-interpolation-filters="sRGB">
<feFlood flood-opacity="0" result="BackgroundImageFix"/>
<feColorMatrix in="SourceAlpha" type="matrix" values="0 0 0 0 0 0 0 0 0 0 0 0 0 0 0 0 0 0 127 0" result="hardAlpha"/>
<feOffset dx="10" dy="9"/>
<feGaussianBlur stdDeviation="30"/>
<feComposite in2="hardAlpha" operator="out"/>
<feColorMatrix type="matrix" values="0 0 0 0 0.154167 0 0 0 0 0.251 0 0 0 0 0.5 0 0 0 0.12 0"/>
<feBlend mode="normal" in2="BackgroundImageFix" result="effect1_dropShadow_1040_37524"/>
<feBlend mode="normal" in="SourceGraphic" in2="effect1_dropShadow_1040_37524" result="shape"/>
</filter>
<clipPath id="clip0_1040_37524">
<rect width="128" height="48" fill="white" transform="translate(377 235)"/>
</clipPath>
</defs>
</svg>
