<?xml version="1.0" standalone="no"?>
<svg xmlns:xlink="http://www.w3.org/1999/xlink" id="wave" style="transform:rotate(0deg); transition: 0.3s" viewBox="0 0 1440 200" version="1.1" xmlns="http://www.w3.org/2000/svg"><defs><linearGradient id="sw-gradient-0" x1="0" x2="0" y1="1" y2="0"><stop stop-color="rgba(1, 1, 29, 1)" offset="0%"/><stop stop-color="rgba(1, 1, 29, 1)" offset="100%"/></linearGradient></defs><path style="transform:translate(0, 0px); opacity:1" fill="url(#sw-gradient-0)" d="M0,120L80,123.3C160,127,320,133,480,123.3C640,113,800,87,960,86.7C1120,87,1280,113,1440,113.3C1600,113,1760,87,1920,86.7C2080,87,2240,113,2400,126.7C2560,140,2720,140,2880,136.7C3040,133,3200,127,3360,116.7C3520,107,3680,93,3840,80C4000,67,4160,53,4320,70C4480,87,4640,133,4800,150C4960,167,5120,153,5280,123.3C5440,93,5600,47,5760,30C5920,13,6080,27,6240,53.3C6400,80,6560,120,6720,143.3C6880,167,7040,173,7200,156.7C7360,140,7520,100,7680,90C7840,80,8000,100,8160,96.7C8320,93,8480,67,8640,46.7C8800,27,8960,13,9120,26.7C9280,40,9440,80,9600,100C9760,120,9920,120,10080,113.3C10240,107,10400,93,10560,90C10720,87,10880,93,11040,100C11200,107,11360,113,11440,116.7L11520,120L11520,200L11440,200C11360,200,11200,200,11040,200C10880,200,10720,200,10560,200C10400,200,10240,200,10080,200C9920,200,9760,200,9600,200C9440,200,9280,200,9120,200C8960,200,8800,200,8640,200C8480,200,8320,200,8160,200C8000,200,7840,200,7680,200C7520,200,7360,200,7200,200C7040,200,6880,200,6720,200C6560,200,6400,200,6240,200C6080,200,5920,200,5760,200C5600,200,5440,200,5280,200C5120,200,4960,200,4800,200C4640,200,4480,200,4320,200C4160,200,4000,200,3840,200C3680,200,3520,200,3360,200C3200,200,3040,200,2880,200C2720,200,2560,200,2400,200C2240,200,2080,200,1920,200C1760,200,1600,200,1440,200C1280,200,1120,200,960,200C800,200,640,200,480,200C320,200,160,200,80,200L0,200Z"/></svg>