<svg width="68" height="47" viewBox="0 0 68 47" fill="none" xmlns="http://www.w3.org/2000/svg">
<rect x="25" y="13" width="25" height="23" fill="white"/>
<path d="M35.5072 46.9398L21.5561 46.6847C17.0389 46.596 12.5106 46.7734 8.08215 45.853C1.3452 44.4779 0.867951 37.7355 0.368506 32.0798C-0.319618 24.1286 -0.0532474 16.0332 1.24531 8.14852C1.97783 3.72379 4.86351 1.08447 9.32521 0.796146C24.3862 -0.246272 39.5472 -0.124287 54.5749 0.363653C56.162 0.408011 57.7603 0.651982 59.3252 0.92922C67.0499 2.28215 67.2386 9.92285 67.7381 16.3548C68.2375 22.8533 68.0266 29.385 67.0721 35.8391C66.3063 41.1843 64.8413 45.6645 58.6593 46.097C50.9123 46.6625 43.3429 47.1172 35.5738 46.9731C35.5738 46.9398 35.5294 46.9398 35.5072 46.9398ZM27.3052 33.4105C33.1432 30.0615 38.8701 26.7679 44.6748 23.441C38.8257 20.092 33.1099 16.7984 27.3052 13.4715V33.4105Z" fill="#FF0000"/>
</svg>
